<svg width="382" height="382" viewBox="0 0 382 382" fill="none" xmlns="http://www.w3.org/2000/svg">
<path d="M190.654 0C171.242 0 152.516 2.92088 134.87 8.3152C170.937 20.6667 213.581 44.509 258.624 89.025C261.888 92.2625 265.032 95.4962 268.065 98.7203C305.582 97.8752 338.819 103.845 363.561 110.373C333.247 45.204 267.245 0 190.654 0Z" fill="#343A40"/>
<path d="M374.764 141.158C355.619 138.03 329.714 135.637 299.53 138.187C329.565 183.369 338.686 226.298 338.958 261.275C351.99 259.976 362.384 258.121 369.625 256.577C377.176 236.048 381.302 213.867 381.302 190.716C381.302 173.569 379.006 156.966 374.764 141.158Z" fill="#343A40"/>
<path d="M361.226 275.899C355.134 278.187 347.751 280.737 337.964 283.28C336.561 297.641 333.834 309.893 330.99 319.78C343.009 306.708 353.204 291.945 361.226 275.899Z" fill="#343A40"/>
<path d="M248.753 146.987C222.413 154.006 194.72 165.412 167.225 183.238C153.377 192.218 141.002 201.745 129.946 211.521C138.664 217.067 147.936 222.395 157.809 227.393C214.375 256.053 268.483 263.151 309.255 262.836C302.429 228.109 286.22 188.058 251.425 149.869C250.541 148.89 249.654 147.939 248.753 146.987Z" fill="#343A40"/>
<path d="M311.506 338.221C313.211 325.816 314.465 308.779 312.813 288.565C271.8 295.271 213.057 295.924 143.743 270.736C125.743 264.197 109.382 256.651 94.5362 248.492C72.4317 275.87 59.1369 302.103 51.433 320.955C86.2245 358.16 135.706 381.447 190.653 381.447C236.528 381.447 278.611 365.227 311.506 338.221Z" fill="#343A40"/>
<path d="M11.707 256.64C18.5563 244.214 28.1846 228.88 41.5665 212.338C24.9698 198.42 11.6914 184.35 0.978843 171.315C0.33446 177.695 0 184.167 0 190.716C0 213.891 4.14082 236.093 11.707 256.64Z" fill="#343A40"/>
<path d="M23.2083 99.4739C34.7221 119.805 52.8913 146.382 80.123 172.461C101.644 153.834 128.162 136.007 160.574 121.874C174.574 115.767 188.543 111.092 202.326 107.584C147.6 70.7624 89.1775 59.3065 55.9847 55.72C43.0763 68.6057 32.0157 83.3342 23.2083 99.4739Z" fill="#343A40"/>
</svg>
