<?xml version="1.0" encoding="utf-8"?>
<!-- Generator: Adobe Illustrator 26.1.0, SVG Export Plug-In . SVG Version: 6.00 Build 0)  -->
<svg version="1.1" id="Layer_1" xmlns="http://www.w3.org/2000/svg" xmlns:xlink="http://www.w3.org/1999/xlink" x="0px" y="0px"
	 viewBox="0 0 710 200" style="enable-background:new 0 0 710 200;" xml:space="preserve">
<style type="text/css">
	.st0{fill:#6D6F71;}
	.st1{fill:#6DB6CA;}
	.st2{fill:#48C5DC;}
	.st3{fill:#6C6E6F;}
</style>
<g>
	<path class="st0" d="M58.01,91.9c8.57-7.63,19.12-14.93,32.03-20.72c5.57-2.5,11.13-4.42,16.62-5.85
		c-22.5-15.58-46.67-20.1-59.62-21.41c-4.9,4.86-9.15,10.36-12.63,16.37C38.91,68.79,46.42,80.48,58.01,91.9z"/>
	<path class="st0" d="M24.62,89.07c-0.44,3.36-0.67,6.79-0.67,10.27c0,10.33,2.01,20.19,5.65,29.21
		c2.74-5.38,6.97-12.58,13.06-20.33C35.08,101.69,29.15,95.03,24.62,89.07z"/>
	<path class="st0" d="M150.64,139.45c-16.33,2.75-39.71,3.02-67.31-7.3c-7.17-2.68-13.68-5.77-19.59-9.11
		c-9.23,11.76-14.63,23.04-17.62,30.81c14.18,14.54,33.98,23.57,55.9,23.57c18.07,0,34.71-6.14,47.95-16.45
		C150.73,155.84,151.35,148.34,150.64,139.45z"/>
	<path class="st0" d="M77.85,107.9c3.47,2.27,7.16,4.45,11.09,6.5c22.52,11.74,44.06,14.65,60.29,14.52
		c-2.72-14.23-9.17-30.63-23.02-46.27c-0.35-0.4-0.71-0.79-1.06-1.18c-10.48,2.87-21.51,7.55-32.46,14.85
		C87.17,100,82.25,103.9,77.85,107.9z"/>
	<path class="st0" d="M129.07,57.73c1.3,1.32,2.55,2.65,3.76,3.97c16.12-0.38,30.3,2.5,40.34,5.41
		c-12.27-27.04-39.51-45.84-71.13-45.84c-7.83,0-15.38,1.16-22.51,3.3C93.93,29.59,111.02,39.37,129.07,57.73z"/>
	<path class="st0" d="M145.35,77.86c11.96,18.5,15.59,36.09,15.7,50.41c6.72-0.69,11.74-1.76,14.45-2.44
		c2.98-8.27,4.61-17.19,4.61-26.49c0-6.88-0.89-13.55-2.57-19.91C169.8,77.98,158.51,76.72,145.35,77.86z"/>
	<path class="st0" d="M157.2,154.6c6.16-6.16,11.3-13.34,15.14-21.26c-2.53,1.07-6.49,2.57-11.69,3.96
		C159.98,144.34,158.56,150.24,157.2,154.6z"/>
	<path class="st1" d="M42.66,108.23c4.19-5.33,9.27-10.92,15.35-16.33c-11.59-11.42-19.1-23.11-23.61-31.62
		c-5.02,8.68-8.42,18.41-9.79,28.79C29.15,95.03,35.08,101.69,42.66,108.23z"/>
	<path class="st1" d="M160.65,137.29c5.2-1.39,9.16-2.88,11.69-3.96c1.18-2.43,2.23-4.93,3.16-7.5c-2.72,0.68-7.73,1.75-14.45,2.44
		C161.07,131.45,160.92,134.46,160.65,137.29z"/>
	<path class="st1" d="M88.94,114.4c-3.93-2.05-7.62-4.23-11.09-6.5c-5.48,4.98-10.14,10.1-14.1,15.15
		c5.91,3.34,12.42,6.43,19.59,9.11c27.59,10.32,50.98,10.05,67.31,7.3c-0.27-3.33-0.72-6.86-1.42-10.53
		C132.99,129.05,111.45,126.14,88.94,114.4z"/>
	<path class="st1" d="M126.2,82.65c13.85,15.64,20.3,32.05,23.02,46.27c4.35-0.03,8.32-0.29,11.83-0.64
		c-0.11-14.32-3.74-31.91-15.7-50.41c-6.36,0.55-13.16,1.67-20.21,3.6C125.5,81.86,125.85,82.25,126.2,82.65z"/>
	<path class="st1" d="M150.64,139.45c0.71,8.89,0.09,16.38-0.67,21.52c2.54-1.98,4.95-4.11,7.23-6.38
		c1.36-4.35,2.78-10.25,3.45-17.31C157.71,138.08,154.35,138.83,150.64,139.45z"/>
	<path class="st1" d="M132.83,61.7c-1.2-1.32-2.46-2.65-3.76-3.97c-18.05-18.35-35.13-28.14-49.55-33.17
		C67.11,28.29,56,35.02,47.04,43.92c12.94,1.31,37.12,5.83,59.62,21.41C115.69,62.96,124.51,61.9,132.83,61.7z"/>
	<path class="st2" d="M150.64,139.45c3.71-0.63,7.06-1.38,10.01-2.17c0.27-2.83,0.42-5.84,0.39-9.01
		c-3.51,0.36-7.47,0.61-11.83,0.64C149.92,132.59,150.38,136.12,150.64,139.45z"/>
	<path class="st1" d="M132.83,61.7c4.94,5.43,9.08,10.83,12.53,16.16c13.16-1.15,24.45,0.12,32.19,1.57
		c-1.12-4.26-2.59-8.38-4.38-12.33C163.13,64.2,148.94,61.32,132.83,61.7z"/>
	<path class="st1" d="M42.66,108.23c-6.09,7.74-10.32,14.94-13.06,20.33c3.84,9.5,9.49,18.08,16.53,25.3
		c2.99-7.78,8.39-19.06,17.62-30.81C55.62,118.45,48.62,113.38,42.66,108.23z"/>
	<path class="st1" d="M92.68,96.32c10.95-7.3,21.97-11.98,32.46-14.85c-5.83-6.39-12.09-11.71-18.49-16.14
		c-5.49,1.44-11.05,3.35-16.62,5.85c-12.9,5.79-23.46,13.09-32.03,20.72c5.61,5.53,12.18,10.99,19.83,16
		C82.25,103.9,87.17,100,92.68,96.32z"/>
	<path class="st2" d="M77.85,107.9c-7.65-5.01-14.22-10.47-19.83-16c-6.08,5.42-11.16,11-15.35,16.33
		c5.96,5.15,12.96,10.22,21.09,14.81C67.7,118,72.37,112.87,77.85,107.9z"/>
	<path class="st2" d="M125.14,81.47c7.05-1.93,13.85-3.05,20.21-3.6c-3.45-5.33-7.58-10.74-12.53-16.16
		c-8.31,0.19-17.14,1.26-26.17,3.63C113.05,69.75,119.31,75.08,125.14,81.47z"/>
</g>
<g>
	<path class="st0" d="M273.72,118.25l15.48-71.64h35.72l-2.68,12.1h-22.03l-3.57,16.47h17.26l-2.68,12.1h-17.26l-6.55,30.96H273.72z
		"/>
	<path class="st0" d="M319.16,80.05c0.86-2.98,2.1-5.54,3.72-7.69c1.62-2.15,3.49-3.88,5.61-5.21c2.12-1.32,4.4-2.3,6.85-2.93
		c2.45-0.63,4.93-0.94,7.44-0.94c5.49,0,9.41,1.04,11.76,3.13c2.35,2.08,3.52,4.88,3.52,8.38v0.2c0,0.73-0.03,1.47-0.1,2.23
		c-0.07,0.76-0.2,1.57-0.4,2.43l-7.34,34.23c-0.2,0.99-0.3,1.95-0.3,2.88c0,0.66,0.03,1.16,0.1,1.49h-12.5v-0.79
		c0-0.59,0.02-1.25,0.05-1.98c0.03-0.73,0.08-1.55,0.15-2.48c-2.25,1.85-4.75,3.36-7.49,4.51c-2.75,1.16-5.71,1.74-8.88,1.74
		c-3.18,0-5.64-0.73-7.39-2.18c-1.75-1.45-2.63-3.74-2.63-6.85c0-0.6,0.03-1.21,0.1-1.84c0.06-0.63,0.2-1.31,0.4-2.03
		c0.66-3.11,1.95-5.82,3.87-8.14c1.92-2.31,4.3-4.33,7.14-6.05c2.84-1.72,6.08-3.24,9.72-4.56c3.64-1.32,7.54-2.58,11.71-3.77
		l0.79-3.97c0.06-0.33,0.11-0.65,0.15-0.94c0.03-0.3,0.05-0.61,0.05-0.94c0-1.65-0.51-2.83-1.54-3.52c-1.03-0.69-2.3-1.04-3.82-1.04
		c-1.92,0-3.67,0.63-5.26,1.89c-1.59,1.26-2.58,2.84-2.98,4.76H319.16z M342.48,91.86c-1.98,0.66-3.97,1.41-5.95,2.23
		c-1.98,0.83-3.8,1.77-5.46,2.83c-1.65,1.06-3.04,2.2-4.17,3.42c-1.13,1.22-1.82,2.53-2.08,3.92c-0.07,0.33-0.12,0.61-0.15,0.84
		c-0.03,0.23-0.05,0.48-0.05,0.74v0.2c0,1.26,0.4,2.22,1.19,2.88c0.79,0.66,1.89,0.99,3.27,0.99c1.92,0,3.69-0.45,5.31-1.34
		c1.62-0.89,3.36-2.1,5.21-3.62L342.48,91.86z"/>
	<path class="st0" d="M389.41,80.75c-0.33-2.51-1.13-4.37-2.38-5.56c-1.26-1.19-2.84-1.79-4.76-1.79c-1.46,0-2.75,0.46-3.87,1.39
		c-1.12,0.93-1.85,2.08-2.18,3.47c-0.07,0.2-0.1,0.46-0.1,0.79v0.1c0,1.19,0.48,2.22,1.44,3.08c0.96,0.86,2.17,1.7,3.62,2.53
		c1.45,0.83,3.03,1.69,4.71,2.58s3.26,1.92,4.71,3.08c1.45,1.16,2.66,2.5,3.62,4.02c0.96,1.52,1.44,3.34,1.44,5.46v0.1
		c0,0.93-0.1,1.89-0.3,2.88c-0.6,2.71-1.57,5.08-2.93,7.09c-1.36,2.02-2.98,3.72-4.86,5.11c-1.88,1.39-4.02,2.43-6.4,3.12
		c-2.38,0.7-4.86,1.04-7.44,1.04c-1.92,0-3.72-0.17-5.41-0.5c-1.69-0.33-3.26-1.04-4.71-2.13c-1.46-1.09-2.75-2.64-3.87-4.66
		c-1.12-2.02-2.08-4.71-2.88-8.09l11.81-3.08c0,2.51,0.6,4.53,1.79,6.05c1.19,1.52,3.04,2.28,5.56,2.28c1.92,0,3.49-0.41,4.71-1.24
		c1.22-0.83,2.03-2,2.43-3.52c0.07-0.26,0.1-0.66,0.1-1.19v-0.1c0-1.39-0.48-2.55-1.44-3.47c-0.96-0.93-2.15-1.79-3.57-2.58
		c-1.42-0.79-2.98-1.6-4.66-2.43c-1.69-0.83-3.24-1.79-4.66-2.88c-1.42-1.09-2.61-2.4-3.57-3.92c-0.96-1.52-1.44-3.41-1.44-5.66
		v-0.2c0-1.26,0.13-2.45,0.4-3.57c0.53-2.58,1.47-4.81,2.83-6.7c1.35-1.89,2.96-3.44,4.81-4.66c1.85-1.22,3.88-2.15,6.1-2.78
		c2.21-0.63,4.42-0.94,6.6-0.94c4.7,0,8.35,1.23,10.96,3.67c2.61,2.45,4.25,5.72,4.91,9.82L389.41,80.75z"/>
	<path class="st0" d="M405.08,76.78l2.28-10.12h4.96l3.08-14.68h12.5l-3.08,14.68h8.04l-2.28,10.12h-8.04l-5.85,27.58
		c-0.07,0.2-0.1,0.5-0.1,0.89v0.2c0,0.99,0.43,1.72,1.29,2.18c0.86,0.46,2.02,0.69,3.47,0.69c0.46,0,0.89,0,1.29,0
		c0.4,0,0.79-0.03,1.19-0.1l-2.28,10.52c-1.19,0.2-2.4,0.33-3.62,0.4c-1.22,0.06-2.43,0.1-3.62,0.1c-3.57,0-6.37-0.61-8.38-1.83
		c-2.02-1.22-3.03-3.26-3.03-6.1c0-0.86,0.1-1.79,0.3-2.78l6.85-31.75H405.08z"/>
	<path class="st0" d="M444.08,94.24l-1.59,7.14c-0.13,0.4-0.2,0.79-0.2,1.19c0,0.4,0,0.76,0,1.09v0.2c0,1.79,0.55,3.11,1.64,3.97
		c1.09,0.86,2.5,1.29,4.22,1.29c2.64,0,4.7-0.73,6.15-2.18c1.45-1.45,2.38-3.24,2.78-5.36h12.5c-1.52,5.62-4.27,9.97-8.23,13.05
		c-3.97,3.08-9.13,4.61-15.48,4.61c-5.09,0-9.05-1.24-11.86-3.72c-2.81-2.48-4.22-5.94-4.22-10.37v-0.2c0-0.73,0.03-1.5,0.1-2.33
		c0.07-0.83,0.2-1.67,0.4-2.53l3.87-17.66c0.6-2.98,1.62-5.64,3.08-7.99c1.45-2.35,3.22-4.35,5.31-6c2.08-1.65,4.45-2.93,7.09-3.82
		c2.64-0.89,5.46-1.34,8.43-1.34c5.03,0,8.99,1.26,11.91,3.77c2.91,2.51,4.37,5.92,4.37,10.22v0.2c0,1.46-0.13,2.84-0.4,4.17
		l-2.68,12.6H444.08z M460.95,84.12l0.6-2.98c0.2-0.86,0.3-1.65,0.3-2.38c0-1.72-0.48-3.04-1.44-3.97c-0.96-0.93-2.5-1.39-4.61-1.39
		c-2.51,0-4.5,0.69-5.95,2.08c-1.46,1.39-2.45,3.27-2.98,5.66l-0.6,2.98H460.95z"/>
	<path class="st0" d="M475.33,118.25l11.61-53.98h12.2l-1.49,7.14h0.2c1.98-2.71,4.12-4.75,6.4-6.1c2.28-1.35,5.01-2.03,8.19-2.03
		l-2.98,13.49c-0.93-0.33-1.93-0.65-3.03-0.94c-1.09-0.3-2.2-0.45-3.32-0.45c-2.05,0-3.71,0.63-4.96,1.89
		c-1.26,1.26-2.05,2.61-2.38,4.07l-7.94,36.91H475.33z"/>
	<path class="st0" d="M534.57,118.25l1.29-6.55h-0.2c-0.73,0.86-1.65,1.74-2.78,2.63c-1.12,0.89-2.37,1.7-3.72,2.43
		c-1.36,0.73-2.76,1.32-4.22,1.79c-1.46,0.46-2.88,0.69-4.27,0.69c-3.64,0-6.27-1.01-7.89-3.03c-1.62-2.02-2.43-4.98-2.43-8.88
		c0.07-1.39,0.2-2.88,0.4-4.46c0.2-1.59,0.5-3.27,0.89-5.06l2.88-13.1c1.52-7.01,3.74-12.34,6.65-15.97
		c2.91-3.64,6.81-5.46,11.71-5.46c1.72,0,3.39,0.45,5.01,1.34c1.62,0.89,3.69,2.43,6.2,4.61l4.96-22.62h12.5l-15.48,71.64H534.57z
		 M542.5,76.48c-1.79-2.58-4-3.87-6.65-3.87c-0.86,0-1.7,0.17-2.53,0.5c-0.83,0.33-1.62,0.98-2.38,1.94
		c-0.76,0.96-1.49,2.28-2.18,3.97c-0.69,1.69-1.34,3.85-1.93,6.5l-2.48,11.51c-0.6,2.91-0.89,5.23-0.89,6.95v0.4
		c0,2.25,0.41,3.74,1.24,4.46c0.83,0.73,1.84,1.09,3.03,1.09c1.39,0,2.74-0.31,4.07-0.94c1.32-0.63,2.78-1.6,4.37-2.93L542.5,76.48z
		"/>
	<path class="st0" d="M565.03,80.05c0.86-2.98,2.1-5.54,3.72-7.69c1.62-2.15,3.49-3.88,5.61-5.21c2.12-1.32,4.4-2.3,6.85-2.93
		c2.45-0.63,4.93-0.94,7.44-0.94c5.49,0,9.41,1.04,11.76,3.13c2.35,2.08,3.52,4.88,3.52,8.38v0.2c0,0.73-0.03,1.47-0.1,2.23
		c-0.07,0.76-0.2,1.57-0.4,2.43l-7.34,34.23c-0.2,0.99-0.3,1.95-0.3,2.88c0,0.66,0.03,1.16,0.1,1.49h-12.5v-0.79
		c0-0.59,0.02-1.25,0.05-1.98c0.03-0.73,0.08-1.55,0.15-2.48c-2.25,1.85-4.75,3.36-7.49,4.51c-2.75,1.16-5.71,1.74-8.88,1.74
		s-5.64-0.73-7.39-2.18c-1.75-1.45-2.63-3.74-2.63-6.85c0-0.6,0.03-1.21,0.1-1.84c0.07-0.63,0.2-1.31,0.4-2.03
		c0.66-3.11,1.95-5.82,3.87-8.14c1.92-2.31,4.3-4.33,7.14-6.05c2.84-1.72,6.08-3.24,9.72-4.56c3.64-1.32,7.54-2.58,11.71-3.77
		l0.79-3.97c0.06-0.33,0.11-0.65,0.15-0.94c0.03-0.3,0.05-0.61,0.05-0.94c0-1.65-0.51-2.83-1.54-3.52c-1.03-0.69-2.3-1.04-3.82-1.04
		c-1.92,0-3.67,0.63-5.26,1.89c-1.59,1.26-2.58,2.84-2.98,4.76H565.03z M588.34,91.86c-1.98,0.66-3.97,1.41-5.95,2.23
		c-1.98,0.83-3.8,1.77-5.46,2.83c-1.65,1.06-3.04,2.2-4.17,3.42c-1.13,1.22-1.82,2.53-2.08,3.92c-0.07,0.33-0.12,0.61-0.15,0.84
		c-0.03,0.23-0.05,0.48-0.05,0.74v0.2c0,1.26,0.4,2.22,1.19,2.88c0.79,0.66,1.88,0.99,3.27,0.99c1.92,0,3.69-0.45,5.31-1.34
		c1.62-0.89,3.36-2.1,5.21-3.62L588.34,91.86z"/>
	<path class="st0" d="M608.48,76.78l2.28-10.12h4.96l3.08-14.68h12.5l-3.08,14.68h8.04l-2.28,10.12h-8.04l-5.85,27.58
		c-0.07,0.2-0.1,0.5-0.1,0.89v0.2c0,0.99,0.43,1.72,1.29,2.18c0.86,0.46,2.02,0.69,3.47,0.69c0.46,0,0.89,0,1.29,0
		c0.4,0,0.79-0.03,1.19-0.1l-2.28,10.52c-1.19,0.2-2.4,0.33-3.62,0.4c-1.22,0.06-2.43,0.1-3.62,0.1c-3.57,0-6.37-0.61-8.38-1.83
		c-2.02-1.22-3.03-3.26-3.03-6.1c0-0.86,0.1-1.79,0.3-2.78l6.85-31.75H608.48z"/>
	<path class="st0" d="M641.62,80.05c0.86-2.98,2.1-5.54,3.72-7.69c1.62-2.15,3.49-3.88,5.61-5.21c2.12-1.32,4.4-2.3,6.85-2.93
		c2.45-0.63,4.93-0.94,7.44-0.94c5.49,0,9.41,1.04,11.76,3.13c2.35,2.08,3.52,4.88,3.52,8.38v0.2c0,0.73-0.03,1.47-0.1,2.23
		c-0.07,0.76-0.2,1.57-0.4,2.43l-7.34,34.23c-0.2,0.99-0.3,1.95-0.3,2.88c0,0.66,0.03,1.16,0.1,1.49h-12.5v-0.79
		c0-0.59,0.02-1.25,0.05-1.98c0.03-0.73,0.08-1.55,0.15-2.48c-2.25,1.85-4.75,3.36-7.49,4.51c-2.75,1.16-5.71,1.74-8.88,1.74
		s-5.64-0.73-7.39-2.18c-1.75-1.45-2.63-3.74-2.63-6.85c0-0.6,0.03-1.21,0.1-1.84c0.07-0.63,0.2-1.31,0.4-2.03
		c0.66-3.11,1.95-5.82,3.87-8.14c1.92-2.31,4.3-4.33,7.14-6.05c2.84-1.72,6.08-3.24,9.72-4.56c3.64-1.32,7.54-2.58,11.71-3.77
		l0.79-3.97c0.06-0.33,0.11-0.65,0.15-0.94c0.03-0.3,0.05-0.61,0.05-0.94c0-1.65-0.51-2.83-1.54-3.52c-1.03-0.69-2.3-1.04-3.82-1.04
		c-1.92,0-3.67,0.63-5.26,1.89c-1.59,1.26-2.58,2.84-2.98,4.76H641.62z M664.94,91.86c-1.98,0.66-3.97,1.41-5.95,2.23
		c-1.98,0.83-3.8,1.77-5.46,2.83c-1.65,1.06-3.04,2.2-4.17,3.42c-1.13,1.22-1.82,2.53-2.08,3.92c-0.07,0.33-0.12,0.61-0.15,0.84
		c-0.03,0.23-0.05,0.48-0.05,0.74v0.2c0,1.26,0.4,2.22,1.19,2.88c0.79,0.66,1.88,0.99,3.27,0.99c1.92,0,3.69-0.45,5.31-1.34
		c1.62-0.89,3.36-2.1,5.21-3.62L664.94,91.86z"/>
</g>
<polygon class="st0" points="265.77,46.61 250.29,118.25 259.34,118.25 274.89,46.62 "/>
<polygon class="st0" points="246.79,46.61 231.31,118.25 236.74,118.25 252.29,46.62 "/>
<polygon class="st0" points="231.59,46.61 216.12,118.25 218.79,118.25 234.34,46.62 "/>
<polygon class="st0" points="218.12,46.61 202.64,118.25 203.59,118.25 219.14,46.62 "/>
<g>
	<path class="st3" d="M416.86,138.46c0.91,0,1.75,0,2.57,0c0.59,0.59,0.42,1.43,0.6,2.13c0.23,0.92,0.48,1.86,0.65,2.81
		c0.16,0.86,0.21,1.82,0.74,2.6c-0.12,0.61,0.23,1.17,0.24,1.75c0.01,0.5,0.22,0.88,0.46,1.37c0.51-3.65,1.81-7.04,2.54-10.63
		c0.81,0,1.65,0,2.62,0c0.26,0.84,0.63,1.75,0.82,2.7c0.38,1.96,1.07,3.84,1.4,5.81c0.06,0.35,0.18,0.72,0.24,1.09
		c0.03,0.23,0.18,0.45,0.41,0.97c0.72-3.74,1.56-7.13,2.35-10.59c0.91,0,1.87,0,2.85,0c-1.18,4.52-2.35,8.99-3.52,13.47
		c-1.06,0-2.07,0-3.16,0c-0.85-3.26-1.7-6.53-2.55-9.82c-0.63,1.03-0.47,2.22-0.86,3.28c-0.38,1.04-0.61,2.14-0.89,3.22
		c-0.27,1.08-0.52,2.17-0.78,3.29c-1.07,0-2.08,0-3.18,0C419.26,147.52,418.07,143.05,416.86,138.46z"/>
	<path class="st3" d="M229.18,151.94c-1.16,0-2.26,0-3.44,0c-0.98-1.71-1.91-3.46-2.96-5.14c-1.02-1.64-1.81-3.42-3.13-4.91
		c0.04,0.68-0.31,1.35,0.17,2c0.13,0.17,0.02,0.52,0.02,0.78c0,2.3,0,4.6,0,6.89c-0.13,0.12-0.25,0.25-0.37,0.36
		c-0.76,0-1.5,0-2.28,0c0-4.49,0-8.94,0-13.45c1.17,0,2.36,0,3.65,0c1.26,2.2,2.51,4.52,3.91,6.75c0.68,1.08,1.32,2.18,1.97,3.28
		c0.09-0.01,0.18-0.02,0.26-0.03c0.03-0.03,0.09-0.09,0.09-0.09c-0.05-0.07-0.16-0.13-0.16-0.19c-0.01-3.21-0.01-6.43-0.01-9.74
		c0.29-0.01,0.68-0.03,1.06-0.04c0.39-0.01,0.79,0,1.22,0C229.18,142.93,229.18,147.38,229.18,151.94z"/>
	<path class="st3" d="M392.43,151.61c-0.14,0.14-0.24,0.23-0.34,0.34c-1.05,0-2.12,0-3.23,0c-1.94-3.34-3.9-6.71-6.02-10.35
		c0,3.64,0,6.98,0,10.34c-0.84,0-1.58,0-2.38,0c0-4.5,0-8.98,0-13.49c1.14,0,2.24,0,3.41,0c1.99,3.35,3.99,6.72,6,10.09
		c0.03-1.06,0.51-2.09-0.06-3.09c-0.11-0.2-0.02-0.52-0.02-0.79c0-2.03,0-4.07,0-6.2c0.42-0.02,0.85-0.04,1.27-0.04
		c0.44-0.01,0.88,0,1.36,0C392.43,142.83,392.43,147.2,392.43,151.61z"/>
	<path class="st3" d="M328.67,151.94c-0.84,0-1.58,0-2.37,0c0-4.48,0-8.93,0-13.45c1.05,0,2.15,0,3.44,0
		c0.39,0.6,0.89,1.31,1.33,2.06c0.82,1.39,1.6,2.8,2.38,4.2c0.63,1.11,1.34,2.18,1.92,3.32c0.09,0.17,0.26,0.3,0.48,0.55
		c0-3.45,0-6.75,0-10.16c0.82-0.06,1.6-0.02,2.42-0.04c0,4.51,0,8.96,0,13.48c-1.14,0-2.33,0-3.6,0c-1.95-3.31-3.95-6.69-6.04-10.23
		c-0.54,0.97,0.17,1.7,0.06,2.47c-0.12,0.87-0.03,1.76-0.03,2.65c0,0.84,0,1.68,0,2.52S328.67,150.99,328.67,151.94z"/>
	<path class="st3" d="M448.93,147.94c-0.45,0.37-0.45,1.1-0.8,1.67c-0.69,1.13-1.72,1.66-2.87,2.1c-0.92,0.35-1.88,0.21-2.83,0.27
		c-2.14,0.15-3.78-0.79-5-2.4c-0.61-0.81-0.92-1.85-0.98-2.9c-0.05-0.92-0.06-1.86,0-2.78c0.16-2.23,1.11-4.5,3.81-5.34
		c1.29-0.4,2.7-0.7,4.16-0.18c0.74,0.26,1.52,0.38,2.19,0.84c1.45,1,2.25,2.34,2.44,4.09c0.09,0.8,0.34,1.59,0.24,2.41
		C449.21,146.42,449.07,147.13,448.93,147.94z M439.85,148.26c0.36,0.37,0.83,0.85,1.33,1.36c0.86,0.09,1.75,0.19,2.36,0.25
		c0.47-0.19,0.66-0.27,0.85-0.35c0.65-0.28,1.15-0.74,1.39-1.39c0.29-0.78,0.69-1.53,0.58-2.41c-0.05-0.39,0.02-0.8-0.01-1.19
		c-0.14-1.69-0.57-3.21-2.41-3.86c-0.08-0.03-0.14-0.08-0.33-0.19c-0.79,0.09-1.68,0.2-2.36,0.28c-0.65,0.61-1.13,1.07-1.38,1.31
		C438.9,144.23,438.89,146.16,439.85,148.26z"/>
	<path class="st3" d="M247.77,146.67c-0.68,0-1.12,0-1.61,0c0,1.64,0,3.26,0,4.86c-0.17,0.15-0.3,0.26-0.46,0.4
		c-0.79,0-1.63,0-2.5,0c0-4.48,0-8.93,0-13.51c1.37,0,2.78,0.02,4.19-0.01c1.04-0.02,2.02,0.16,3,0.52
		c1.28,0.47,2.15,1.53,2.16,2.84c0,0.7,0,1.41,0,1.96c-0.66,1.04-1.26,1.97-2.54,2.23c1.38,1.99,2.68,3.87,4.03,5.82
		c-0.58,0.31-1.07,0.14-1.53,0.17c-0.49,0.03-0.97,0.01-1.47,0.01C249.93,150.18,248.84,148.41,247.77,146.67z M248.51,144.51
		c0.44-0.37,0.93-0.78,1.33-1.12c0-0.66,0-1.18,0-1.75c-0.41-0.28-0.82-0.57-1.2-0.82c-0.46,0-0.86-0.01-1.26,0
		c-0.43,0.01-0.85,0.03-1.22,0.04c0,1.27,0,2.45,0,3.65C246.9,144.51,247.61,144.51,248.51,144.51z"/>
	<path class="st3" d="M456.34,146.66c-0.48,0-1.02,0-1.64,0c0,1.75,0,3.49,0,5.27c-0.92,0-1.76,0-2.65,0c0-4.46,0-8.94,0-13.5
		c1.81,0,3.63-0.07,5.44,0.03c0.85,0.05,1.71,0.35,2.45,0.82c1.03,0.66,1.25,1.77,1.42,2.85c0.18,1.13-0.29,2.07-1.11,2.85
		c-0.4,0.38-0.81,0.74-1.32,1.2c1.22,1.83,2.5,3.75,3.83,5.74c-1.01,0-1.94,0-3.02,0C458.67,150.28,457.54,148.53,456.34,146.66z
		 M454.67,140.84c0,1.03-0.02,2.03,0.01,3.03c0.01,0.23,0.19,0.45,0.28,0.63c1.16,0.12,2.22,0.09,2.9-0.47
		c0.8-0.8,0.47-1.59,0.57-2.36c-0.46-0.32-0.87-0.6-1.2-0.83C456.33,140.84,455.54,140.84,454.67,140.84z"/>
	<path class="st3" d="M266.12,139.14c-0.68,0.57-0.5,1.49-1.17,1.98c-1.02-0.22-1.97-0.59-3.02-0.59c-1.1,0-1.97,0.45-2.78,1.06
		c-0.99,0.75-1.73,3.29-1.47,4c0.22,0.6,0.17,1.17,0.27,1.73c0.43,1.24,1.27,2.07,2.75,2.53c0.54,0,1.35,0,2.18,0
		c0.19-0.21,0.4-0.44,0.66-0.72c-0.18-0.75,0.33-1.66-0.35-2.46c-0.76,0-1.51,0-2.3,0c0-0.69,0-1.35,0-2.06c1.64,0,3.31,0,5.01,0
		c0,2.24,0,4.48,0,6.73c-0.63,0.2-1.25,0.49-1.96,0.38c-0.62,0.53-1.35,0.2-2.03,0.25c-0.71,0.05-1.43,0.02-2.14,0.01
		c-0.49-0.01-2.11-0.7-2.51-1.03c-1.13-0.93-1.73-2.12-2.07-3.53c-0.24-0.99-0.31-1.97-0.21-2.95c0.24-2.32,1.01-4.35,3.7-5.59
		c0.49-0.22,0.99-0.43,1.55-0.46c0.46-0.02,0.9-0.2,1.36-0.24C262.67,138.07,264.37,138.39,266.12,139.14z"/>
	<path class="st3" d="M472.54,138.45c0.92,0,1.94,0,3.06,0c-1.56,1.94-3.07,3.81-4.58,5.7c0,0.41,0.04,0.77,0.35,1.17
		c1.3,1.74,2.28,3.69,3.61,5.41c0.25,0.32,0.36,0.74,0.57,1.2c-0.45,0.01-0.91,0.03-1.37,0.03c-0.45,0.01-0.89,0-1.45,0
		c-1.43-1.67-2.38-3.74-3.77-5.56c-0.64-0.31-0.8,0.65-1.44,0.62c0,1.63,0,3.25,0,4.91c-0.88,0-1.72,0-2.61,0c0-4.47,0-8.96,0-13.48
		c0.85,0,1.69,0,2.62,0c0,2.01,0,4.02,0,6.27C469.28,142.52,470.89,140.51,472.54,138.45z"/>
	<path class="st3" d="M403.17,143.95c0,0.7,0,1.26,0,1.87c-1.49,0-2.95,0-4.47,0c0,1.35,0,2.65,0,4c1.56,0,3.11,0,4.71,0
		c0,0.73,0,1.41,0,2.12c-2.47,0-4.92,0-7.33,0c-0.4-0.22-0.4-0.56-0.4-0.93c0.01-1.95,0.01-3.89,0.01-5.84c0-2.21,0-4.42,0-6.69
		c2.58,0,5.14,0,7.74,0c0,0.74,0,1.48,0,2.28c-1.54,0-3.09,0-4.7,0c-0.16,0.54-0.07,1.06-0.09,1.57c-0.01,0.53,0,1.05,0,1.62
		C400.14,143.95,401.6,143.95,403.17,143.95z"/>
	<path class="st3" d="M353.65,138.45c2.57,0,5.1,0,7.68,0c0,0.75,0,1.49,0,2.33c-1.62,0-3.29,0-5.01,0c0,1.01,0,1.92,0,2.87
		c0.09,0.09,0.22,0.22,0.39,0.39c1.41,0,2.88,0,4.36,0c0,0.61,0,1.17,0,1.78c-1.47,0-2.93,0-4.36,0c-0.16,0.17-0.28,0.3-0.45,0.48
		c0.15,1.12-0.24,2.35,0.26,3.54c1.65,0,3.2,0,4.8,0c0,0.69,0,1.34,0,2.05c0.02-0.02-0.01,0.02-0.04,0.04
		c-0.03,0.02-0.08,0.04-0.11,0.04c-2.49,0-4.99,0-7.52,0C353.65,147.47,353.65,143.02,353.65,138.45z"/>
	<path class="st3" d="M315.59,138.45c2.56,0,5.1,0,7.68,0c0,0.78,0,1.55,0,2.36c-1.67,0-3.31,0-5,0c0,0.96,0,1.87,0,2.84
		c0.08,0.08,0.21,0.2,0.38,0.37c1.41,0,2.87,0,4.36,0c0,0.6,0,1.17,0,1.78c-1.44,0-2.9,0-4.37,0c-0.13,0.16-0.24,0.3-0.4,0.5
		c0,1,0,2.09,0,3.16c0.12,0.12,0.21,0.21,0.35,0.35c1.5,0,3.05,0,4.66,0c0,0.64,0,1.23,0,1.81c-0.11,0.11-0.2,0.2-0.32,0.32
		c-2.42,0-4.86,0-7.35,0C315.59,147.44,315.59,142.96,315.59,138.45z"/>
	<path class="st3" d="M232.75,138.45c2.57,0,5.1,0,7.75,0c-0.17,0.79,0.29,1.62-0.39,2.37c-1.56,0-3.1,0-4.69,0
		c0,0.96,0,1.87,0,2.82c0.1,0.1,0.22,0.22,0.39,0.39c1.33,0,2.7,0,4.09,0c0,0.6,0,1.17,0,1.76c-1.48,0.28-3.05-0.25-4.5,0.31
		c0,1.21,0,2.3,0,3.37c0.12,0.12,0.22,0.21,0.36,0.35c1.5,0,3.05,0,4.73,0c-0.13,0.74,0.25,1.48-0.36,2.12c-2.47,0-4.91,0-7.39,0
		C232.75,147.44,232.75,142.96,232.75,138.45z"/>
	<path class="st3" d="M206.75,138.45c2.49,0,4.93,0,7.42,0c0,0.76,0,1.5,0,2.33c-1.55,0-3.13,0-4.75,0c0,1.1,0,2.1,0,3.2
		c1.47,0,2.97,0,4.49,0c0,0.65,0,1.22,0,1.88c-0.79,0-1.58-0.04-2.37,0.01c-0.71,0.05-1.51-0.3-2.13,0.32c0,1.12,0,2.22,0,3.28
		c0.13,0.12,0.22,0.22,0.36,0.36c1.41,0,2.87,0,4.38,0c0,0.69,0,1.34,0,2.05c0.02-0.02-0.01,0.02-0.04,0.04
		c-0.03,0.02-0.08,0.04-0.11,0.04c-2.4,0-4.81,0-7.26,0C206.75,147.47,206.75,143.01,206.75,138.45z"/>
	<path class="st3" d="M294.84,139.27c-0.31,0.7-0.6,1.37-0.92,2.09c-1.15-0.39-2.3-1-3.76-0.77c-0.31,0.21-0.72,0.5-1.13,0.78
		c0,0.4,0,0.74,0,1.24c0.31,0.24,0.68,0.6,1.11,0.85c0.72,0.4,1.55,0.63,2.2,1.11c0.65,0.48,1.49,0.65,1.92,1.53
		c0.5,1.04,0.94,2.16,0.38,3.35c-0.07,0.14-0.01,0.35-0.01,0.53c-0.35,0.34-0.7,0.68-1.04,1.03c-0.63,0.63-1.44,0.87-2.28,0.94
		c-0.93,0.08-1.89,0.13-2.8-0.02c-0.84-0.13-1.79-0.13-2.42-0.86c0-0.76,0-1.5,0-2.26c1.6,0.65,3.17,1.28,5.03,0.95
		c0.3-0.22,0.72-0.51,1.09-0.78c0-0.43,0-0.78,0-1.14c-0.79-0.86-1.82-1.31-2.86-1.81c-1.23-0.59-2.35-1.4-3.04-2.79
		c0-0.46,0.04-1.03-0.01-1.6c-0.12-1.31,0.62-2.13,1.64-2.68c1.31-0.71,2.71-1.2,4.23-0.55c0.8-0.09,1.49,0.25,2.18,0.54
		C294.56,139.04,294.72,139.19,294.84,139.27z"/>
	<path class="st3" d="M363.55,151.34c0-0.8,0-1.62,0-2.49c0.92,0.32,1.81,0.78,2.75,0.93c1.18,0.18,2.47,0.38,3.37-0.88
		c0-0.29,0-0.64,0-1.12c-0.34-0.25-0.74-0.56-1.16-0.85c-0.89-0.61-1.99-0.87-2.81-1.6c-0.52-0.46-1.11-0.87-1.54-1.4
		c-0.23-0.29-0.44-0.69-0.39-1.17c0.07-0.66,0.02-1.32,0.02-2.19c0.5-0.56,1.1-1.23,1.64-1.84c1.23-0.21,2.31-0.79,3.49-0.56
		c1.06,0.2,2.09,0.52,3.14,0.79c0.22,0.99-0.41,1.62-0.8,2.34c-1.26-0.46-2.47-0.96-3.9-0.7c-0.25,0.26-0.56,0.58-0.88,0.91
		c0,0.32,0,0.68,0,1c0.81,1.09,2.1,1.39,3.19,2.02c0.74,0.43,1.52,0.72,2.03,1.54c0.76,1.23,0.88,2.38,0.42,3.47
		c-0.05,0.11-0.01,0.26-0.01,0.54c-0.19,0.16-0.5,0.36-0.72,0.63c-0.77,0.95-1.86,1.14-2.96,1.25c-0.84,0.08-1.7,0.05-2.54,0
		c-0.5-0.03-0.99-0.19-1.47-0.31C364.13,151.57,363.86,151.45,363.55,151.34z"/>
	<path class="st3" d="M306.93,139.06c0.27,0.89-0.62,1.45-0.56,2.39c-1.37-0.44-2.58-1.23-4.22-0.79c-0.04,0.02-0.29,0.18-0.55,0.28
		c-1.1,0.43-1.78,1.9-1.86,2.93c-0.05,0.66,0.01,1.33-0.01,1.99c-0.05,1.35,0.35,2.51,1.43,3.4c0.1,0.08,0.19,0.19,0.43,0.42
		c0.75,0.05,1.65,0.2,2.54,0.13c0.82-0.06,1.63-0.37,2.52-0.58c0,0.73,0,1.38,0,2.13c-0.76,0.3-1.61,0.62-2.56,0.61
		c-0.62-0.01-1.25,0-1.87,0c-2.25,0.01-4.29-1.57-4.89-3.56c-0.08-0.27-0.26-0.55-0.25-0.82c0.02-1.04-0.52-2.04-0.27-3.07
		c0.27-1.12,0.37-2.26,1.02-3.3c0.92-1.49,2.11-2.48,3.88-2.83c0.73-0.15,1.47-0.35,2.17-0.2
		C304.86,138.4,305.92,138.47,306.93,139.06z"/>
	<path class="st3" d="M351.21,139.06c-0.17,0.76-0.72,1.96-1.03,2.28c-1.64-0.79-1.68-0.8-3.62-0.8c-0.49,0.27-0.96,0.46-1.35,0.76
		c-0.83,0.63-1.15,1.55-1.25,2.53c-0.07,0.74,0.03,1.5-0.02,2.25c-0.1,1.26,0.41,2.23,1.31,3.05c0.13,0.12,0.25,0.25,0.3,0.3
		c1.75,0.84,3.39,0.23,5.07-0.18c0,0.77,0,1.42,0,2.19c-0.51,0.16-1.05,0.41-1.61,0.5c-0.57,0.09-1.16,0.02-1.74,0.02
		c-0.62,0-1.26,0.07-1.86-0.04c-0.52-0.09-1-0.38-1.52-0.53c-0.91-0.75-1.86-1.54-2.28-2.7c-0.29-0.81-0.53-1.68-0.58-2.54
		c-0.05-0.88-0.01-1.77,0.17-2.68c0.25-1.23,0.8-2.25,1.41-3.28c0.44-0.74,2.21-1.68,3.11-1.78c0.46-0.05,0.91-0.23,1.36-0.25
		C348.51,138.12,349.85,138.49,351.21,139.06z"/>
	<path class="st3" d="M272.42,146.81c-1.61-2.9-3.09-5.56-4.61-8.3c0.51-0.16,1.03-0.07,1.53-0.08c0.53-0.02,1.06,0,1.61,0
		c0.82,1.72,1.63,3.42,2.44,5.12c0.02,0.04,0.06,0.07,0.09,0.09c0.07,0.04,0.15,0.07,0.32,0.15c0.14-0.16,0.33-0.33,0.44-0.54
		c0.73-1.42,1.43-2.86,2.15-4.28c0.09-0.19,0.23-0.35,0.33-0.51c0.96,0,1.89,0,2.98,0c-1.5,2.8-3.1,5.42-4.65,8.32
		c0,1.51,0,3.28,0,5.14c-0.42,0.01-0.85,0.04-1.27,0.04c-0.44,0.01-0.88,0-1.36,0C272.42,150.12,272.42,148.32,272.42,146.81z"/>
	<path class="st3" d="M411.82,151.94c-0.97,0-1.8,0-2.68,0c0-3.68,0-7.33,0-11.06c-0.63-0.14-1.25-0.05-1.85-0.07
		c-0.62-0.02-1.24,0-1.9,0c0-0.78,0-1.52,0-2.32c3.32,0,6.68,0,10.09,0c0,0.71,0,1.45,0,2.32c-0.56,0-1.16,0-1.77,0
		c-0.62,0-1.24,0-1.89,0C411.82,144.52,411.82,148.17,411.82,151.94z"/>
	<path class="st3" d="M312.01,151.94c-0.79,0-1.54,0-2.33,0c0-4.48,0-8.93,0-13.5c0.73-0.03,1.51,0,2.33-0.02
		C312.01,142.92,312.01,147.38,312.01,151.94z"/>
</g>
</svg>
