<?xml version="1.0" encoding="UTF-8"?>
<svg xmlns="http://www.w3.org/2000/svg" viewBox="0 0 978.32 1138.37">
  <defs>
    <style>
      .cls-1 {
        fill: [[settings.colors.primary]];
      }
      .cls-2 {
        fill: [[settings.colors.secondary]];
      }
      .cls-3 {
        fill: #00000;
      }
    </style>
  </defs>
  <g id="Layer_3_Image" data-name="Layer 3 Image">
    <path class="cls-1" d="m678.22,722.91c-17.33-.11-34.51,1.46-51.55,4.46-39.18,6.88-75.61,20.73-108.39,43.53-27.14,18.88-49.35,42.31-64.49,71.95-15.8,30.94-21.22,63.56-14.9,97.87,5.44,29.54,18.93,55.18,38.57,77.65,25.48,29.15,57.22,49.13,93.33,62.28,51.64,18.81,104.57,22.2,158.38,11.66,36.44-7.14,70.33-20.7,100.98-41.91,22.98-15.91,42.49-35.24,57.42-58.99,14.28-22.72,22.98-47.38,24.67-74.23,2.2-34.99-7.21-66.91-26.6-95.94-18.02-26.99-41.78-47.74-69.98-63.56-42.69-23.95-88.78-34.45-137.44-34.77Zm-21.47-650.04c-14.34.1-29.54,1.24-44.55,4.35-20.88,4.33-40.5,11.68-57.51,24.9-23.05,17.92-35.26,41.5-36.24,70.76-.72,21.55,4.75,41.76,13.65,61.15,13.23,28.82,32.26,53.54,55.22,75.11,62.83,59.04,136.87,94.94,222.59,105.8,25.54,3.24,51.16,2.6,76.48-2.89,20.48-4.44,39.69-11.87,56.3-24.98,23.11-18.24,35-42.15,35.6-71.63.42-20.4-4.64-39.61-12.98-58.02-13.46-29.71-32.98-55.1-56.43-77.54-40.94-39.19-88.65-67.38-141.86-86.42-35.33-12.64-71.68-20.04-110.27-20.59ZM144.71,685.83c6.16-.55,16.9-1,27.49-2.55,46.62-6.84,88.61-24.95,126.26-53.13,25.58-19.15,47.22-42,63.45-69.69,12.86-21.93,21.36-45.32,22.69-70.94,1.59-30.66-7.25-57.74-28.27-80.48-14.39-15.57-32.32-25.67-52.02-32.7-11.83-4.22-24.15-6.63-36.66-7.95-24.63-2.62-49.04-1.06-73.12,4.48-60.51,13.92-111.7,43.63-151.83,91.34-20.43,24.29-35.09,51.69-40.6,83.32-5.16,29.61-.99,57.6,15.96,82.96,12.58,18.83,29.94,31.97,50.46,41.12,22.8,10.16,46.9,13.89,76.22,14.23Z"/>
    <path class="cls-1" d="m678.22,722.91c48.66.32,94.75,10.82,137.44,34.77,28.2,15.82,51.95,36.57,69.98,63.56,19.39,29.03,28.8,60.95,26.6,95.94-1.69,26.85-10.39,51.51-24.67,74.23-14.93,23.75-34.43,43.08-57.42,58.99-30.64,21.21-64.53,34.77-100.98,41.91-53.81,10.54-106.74,7.15-158.38-11.66-36.11-13.16-67.86-33.13-93.33-62.28-19.64-22.48-33.13-48.12-38.57-77.65-6.32-34.31-.9-66.93,14.9-97.87,15.14-29.64,37.35-53.07,64.49-71.95,32.77-22.8,69.2-36.65,108.39-43.53,17.04-2.99,34.22-4.56,51.55-4.46Z"/>
    <path class="cls-1" d="m656.75,72.87c38.59.55,74.94,7.95,110.27,20.59,53.21,19.05,100.92,47.24,141.86,86.42,23.45,22.44,42.97,47.83,56.43,77.54,8.34,18.41,13.4,37.62,12.98,58.02-.6,29.48-12.49,53.39-35.6,71.63-16.61,13.11-35.82,20.54-56.3,24.98-25.32,5.49-50.93,6.12-76.48,2.89-85.72-10.86-159.77-46.76-222.59-105.8-22.96-21.57-41.99-46.29-55.22-75.11-8.9-19.39-14.37-39.6-13.65-61.15.98-29.26,13.19-52.84,36.24-70.76,17.01-13.22,36.63-20.58,57.51-24.9,15.01-3.11,30.21-4.25,44.55-4.35Z"/>
    <path class="cls-1" d="m144.71,685.83c-29.32-.34-53.42-4.06-76.22-14.23-20.52-9.15-37.88-22.29-50.46-41.12-16.95-25.37-21.12-53.36-15.96-82.96,5.51-31.63,20.17-59.03,40.6-83.32,40.13-47.71,91.32-77.42,151.83-91.34,24.08-5.54,48.49-7.1,73.12-4.48,12.51,1.33,24.84,3.73,36.66,7.95,19.71,7.03,37.63,17.14,52.02,32.7,21.02,22.74,29.86,49.81,28.27,80.48-1.33,25.62-9.83,49.01-22.69,70.94-16.23,27.69-37.87,50.54-63.45,69.69-37.65,28.18-79.63,46.29-126.26,53.13-10.58,1.55-21.33,2-27.49,2.55Z"/>
  </g>
  <g id="Layer_4_Image" data-name="Layer 4 Image">
    <path class="cls-2" d="m621.11,659.24c-.85-8.66.99-15.77,7.21-21.36,4.41-3.96,9.54-6.02,15.37-6.02,13.37-.02,21.22,9.44,22.45,27.49,5.44.06,10.98.16,16.52.19,5.82.04,11.63.02,17.45.02,5.63,0,11.27.02,16.9.02,5.58,0,11.16,0,17.25,0,.4,32.66.81,65.24,1.22,98.1,3.37,0,6.23-.16,9.06.03,11.78.8,21.25,10.61,22.32,23,.95,10.96-6.69,21.82-17.7,24.37-3.97.92-8.23.56-13.08.83.13,1.91.27,4.09.46,6.97-1.87.13-3.94.4-6.02.39-22.36-.04-44.71-.09-67.07-.2-47.44-.24-94.88-.52-142.32-.8-.53,0-1.05-.16-1.59-.25-2.17-2.2-1.98-4.96-1.96-7.67.16-28.17.32-56.35.5-84.52.11-17.63.24-35.26.39-52.89.02-2.14.22-4.28.37-6.93,2.64-.17,4.92-.43,7.21-.44,29.45-.03,58.89-.03,88.34-.05,2.11,0,4.22-.17,6.71-.28Z"/>
    <path class="cls-2" d="m216.62,333.39c.4,22.58.79,44.26,1.18,65.95,15.55-.77,23.71,5.22,23.81,16.94.1,11.61-7.79,17.79-22.91,17.48,0,3.92.02,7.85,0,11.77-.04,7.84,1.54,7.96-7.7,10.1-34.14,7.93-68.28,15.85-102.42,23.78-1.72.4-3.41.91-5.53,1.48,1.43,1.9,2.61,3.26,3.57,4.77,3.69,5.76,2.86,12.66-2.02,17.42-8.09,7.91-23.44,6.61-30.02-2.55-2.16-3.01-2.76-5.31-3.12-12.34-6.37,1.27-12.67,2.53-19.65,3.93-.22-2.56-.53-4.47-.53-6.39,0-34.35.03-68.7.06-103.04,0-.73,0-1.45.03-2.18.15-5.19.17-5.43,5.17-6.77,10.17-2.72,20.39-5.28,30.6-7.86,41.38-10.46,82.75-20.9,124.14-31.33,1.71-.43,3.46-.76,5.35-1.16Z"/>
    <path class="cls-2" d="m874.17,208.9c-4.53-.92-8.09-1.56-11.61-2.37-48.84-11.23-97.68-22.48-146.51-33.74-1.06-.24-2.13-.48-3.16-.83-3.49-1.18-4.45-2.56-4.47-6.41-.02-4.86,0-9.71,0-15.25-5.24.82-9.63.24-12.89-3.59-2.47-2.9-3.56-6.26-3.52-10.05.09-8.92,5.13-13.71,16.36-15.01V52.23c.73-.65.85-.79.99-.87.15-.09.34-.18.51-.18.9.04,1.83-.02,2.69.18,53.39,12.52,106.77,25.05,160.15,37.61.68.16,1.31.56,1.71.74-.19,3.2-.56,6.16-.52,9.12.42,33.98.92,67.95,1.31,101.93.03,2.44-.6,4.9-1.03,8.13Z"/>
    <path class="cls-2" d="m225.93,710.49c.41-11.94,6.79-24.05,18.48-33.47,11.21-9.03,23.98-13.35,38.41-12.78,19.96.8,36.6,14.01,40.75,32.58,1.88,8.39,1.03,16.62-2.08,24.61-10.17,26.11-41.71,40.4-68.03,30.84-17.03-6.18-27.62-21.03-27.53-41.79Z"/>
    <path class="cls-2" d="m770.75,938.28c-.26,14.24-4.95,27.27-15.57,37.77-17.96,17.75-45.17,15.86-60.69-4.06-16.25-20.88-13.9-53.64,5.54-71.56,15.91-14.66,40.24-16.34,57.1,1.54,9.43,10,13.45,22.17,13.61,36.31Z"/>
    <path class="cls-2" d="m384.31,621.18c14.89.13,27.78,5.15,38.09,16.03,18.54,19.58,14.79,49.03-7.95,63.53-20.75,13.23-49.85,9.26-66.29-9.04-17.07-19.01-13.96-46.77,6.92-61.53,8.74-6.18,18.53-9.06,29.23-8.99Z"/>
    <path class="cls-2" d="m279.75,611.82c-.24,10.18-4.64,21.99-14.57,31.36-16.96,16.01-41.93,12.94-54.62-6.6-12.47-19.21-8.43-46.66,9.05-61.45,16.37-13.85,39.14-11.1,51.74,6.24,5.53,7.61,8.43,16.96,8.4,30.45Z"/>
    <path class="cls-2" d="m565.72,249.7c.08,7.2-1.13,14.11-4.47,20.55-6.49,12.52-18.83,16.96-31.73,11.32-2.47-1.08-4.85-2.51-7.04-4.09-17.94-12.95-28.06-41.39-22.3-62.74,1.73-6.4,4.6-12.07,10.25-16.2,7.49-5.48,15.33-6.05,23.67-2.75,6.75,2.67,12.16,7.21,16.69,12.77,9.74,11.97,14.67,25.71,14.93,41.13Z"/>
    <path class="cls-2" d="m493.68,280.46c-.06,15.85-9.06,27.75-23.35,30.62-5.81,1.17-11.56.58-17.2-1.26-17.64-5.74-31.41-23.71-31.75-42.23-.09-4.8.75-9.85,2.31-14.39,5.22-15.18,20.95-22.21,37.39-17.18,18.71,5.73,32.67,24.75,32.6,44.43Z"/>
    <path class="cls-2" d="m600.62,974.74c.07-4.41,1.55-10.9,4.82-16.92,9.06-16.64,29.03-22.22,45.41-12.7,19.58,11.38,26.19,39.08,13.87,58.12-9.29,14.35-26.79,19.11-42.06,11.43-13.3-6.69-22.06-21.58-22.05-39.92Z"/>
    <path class="cls-2" d="m361.5,420.92c-22.49.11-38.24-19.24-33.86-41.36,4.11-20.75,26.24-33.9,45.86-29.19,18.41,4.43,29.3,22.89,24.66,41.73-4.1,16.65-19.47,28.74-36.65,28.82Z"/>
    <path class="cls-2" d="m810.07,848.1c.01,9.65-2.45,18.05-7.99,25.41-11.8,15.64-31.97,15.14-43.03-1.02-9.52-13.9-9.41-35.42.89-48.67,13.09-16.84,32.4-14.34,42.79.17,5.25,7.33,7.53,15.6,7.35,24.11Z"/>
    <path class="cls-2" d="m441.63,561.27c14.41-.53,30.03,11.68,33.18,29.82,1.01,5.81.75,11.57-1.15,17.19-4.79,14.18-18.98,21.77-33.43,17.89-19.21-5.15-31.13-27.21-24.86-46.05,3.95-11.86,14.76-19.82,26.27-18.86Z"/>
    <path class="cls-2" d="m582.54,594.04c-17.68.05-30.34-14.74-27.57-32.21,2.52-15.92,16.08-28.12,32.21-28.98,18.69-1,32.16,14.43,28.67,32.83-3.08,16.19-17.31,28.32-33.31,28.36Z"/>
    <path class="cls-2" d="m550.7,959.8c8.85.25,17.1,3.49,23.55,10.64,9.64,10.7,9.36,26.12-.56,36.55-13.14,13.83-37.35,12.94-49.47-1.81-9.8-11.93-7.91-27.96,4.57-38.13,6.16-5.02,13.33-7.23,21.92-7.26Z"/>
    <path class="cls-2" d="m197.82,508.85c18.83.08,32.1,14.02,30.49,31.04-1.26,13.24-12.88,24.39-26.93,25.78-8.08.8-15.54-.96-22.11-5.81-15.31-11.3-15.17-33.5.2-44.71,5.77-4.21,12.14-6.41,18.35-6.29Z"/>
    <path class="cls-2" d="m402.62,292.32c14.87-.34,28.27,12.19,29.56,27.8.24,2.87.23,5.86-.31,8.67-2.74,14.11-16.03,21.74-29.76,17.25-14.73-4.82-24.29-22-20.6-37.07.34-1.4.86-2.78,1.44-4.1,3.66-8.37,9.89-12.32,19.67-12.55Z"/>
    <path class="cls-2" d="m131.64,540.67c-10.44.03-19.05-5.56-22.21-14.41-3.26-9.13.16-19.52,8.43-26.16,7.86-6.31,16.58-8.9,26.43-6.15,12.88,3.59,19.08,16.34,14.22,28.8-4.12,10.59-15.06,17.89-26.87,17.92Z"/>
    <path class="cls-2" d="m489.21,582.82c-.2-6.23,1.66-11.87,5.32-16.83,5.92-8.02,15.68-9.84,24.21-4.7,13.45,8.1,17.55,29.95,7.95,42.41-6.91,8.97-18.54,9.99-27.39,2.4-6.29-5.39-10.05-14.07-10.09-23.29Z"/>
    <path class="cls-2" d="m643.76,620.19c-10.74.01-18.57-6.03-21.1-15.2-4.5-16.3,7.83-31.14,20.5-33.77,8.3-1.72,15.2.89,20.03,7.69,6.06,8.54,5.62,17.77.99,26.76-4.55,8.84-11.87,13.91-20.42,14.52Z"/>
    <path class="cls-2" d="m300.45,402.11c8.71.15,16.04,3.25,21.56,9.96,9.1,11.05,5.26,26.2-8.07,31.33-10.15,3.91-19.72,2.11-28.06-4.79-6.46-5.34-9.69-12.34-7.74-20.78,1.88-8.13,9.68-14.3,18.58-15.43,1.26-.16,2.53-.2,3.73-.28Z"/>
    <path class="cls-2" d="m374.1,1072.2c-4.91-.07-11.34-2.61-15.13-9.49-3.87-7.03-2.78-14.05,1.38-20.65,6.05-9.6,17.92-14.62,28.73-12.3,12.14,2.61,18.15,13.96,13.49,25.48-4.01,9.92-14.71,16.95-28.47,16.95Z"/>
    <path class="cls-2" d="m411.49,1010.25c-.08-12.47,10.01-23.03,22.02-23.04,11.77,0,21.42,10.09,21.31,22.32-.11,12.33-9.9,22.54-21.82,22.76-11.8.22-21.42-9.65-21.5-22.04Z"/>
    <path class="cls-2" d="m589.02,219.21c-11.23-.28-19.42-4.01-25.48-11.79-4.54-5.82-6.09-12.5-2.87-19.38,3.17-6.77,9.28-9.33,16.48-9.6,9.25-.35,17.17,2.81,23.35,9.63,2.25,2.48,4.1,5.6,5.25,8.76,3.23,8.86-.84,17.44-9.63,20.74-2.67,1-5.6,1.31-7.11,1.65Z"/>
    <path class="cls-2" d="m631.31,199.2c-7.28-.12-12.65-3.71-16.31-9.93-5.2-8.85-4.11-21.28,2.52-29.15,8.58-10.19,25.74-11.52,32.74,4.75,4.08,9.48,2.52,18.56-3.78,26.67-3.74,4.81-8.8,7.48-15.17,7.67Z"/>
    <path class="cls-2" d="m509.93,998.33c-1.15,11.04-7.21,21.39-19.35,27.11-14.38,6.78-22.73-4.62-21.53-15.19,1.09-9.55,4.96-17.33,11.89-23.69,1.98-1.82,4.29-3.39,6.69-4.59,12.2-6.11,22.5.47,22.3,16.37Z"/>
    <path class="cls-2" d="m670.63,136.09c7.33.02,13.78,4.49,16.56,11.92,2.74,7.31,2.22,14.31-3.39,20.23-4.32,4.55-11.17,5.5-17.08,2.68-9.82-4.68-14.01-18.07-8.5-27.46,2.75-4.7,6.79-7.43,12.42-7.37Z"/>
    <path class="cls-2" d="m358.71,1089.22c-.11,9.13-6.98,18.1-15.41,20.12-6.47,1.55-12.03-1.88-13.52-8.35-2.37-10.3,5.65-22.37,16.04-24.15,7.25-1.24,12.99,4.28,12.89,12.38Z"/>
    <path class="cls-2" d="m252.32,454.96c-9.8.31-13.59-8.92-11.53-16.16,2.03-7.12,9.35-13.04,16.76-13.59,9.25-.69,15.23,6.29,13.09,15.28-1.91,8-10.1,14.48-18.31,14.47Z"/>
    <path class="cls-2" d="m334.31,1126.76c-.13,6.46-5.95,11.85-12.53,11.61-5.8-.21-10.25-4.77-10.26-10.49-.01-6.44,5.68-11.93,12.31-11.88,6.04.05,10.61,4.74,10.49,10.76Z"/>
  </g>
  <g id="Layer_2_Image" data-name="Layer 2 Image">
    <path class="cls-3" d="m605.19,40.94c1.96-.98,3.21-1.68,4.53-2.26,28.28-12.41,56.63-24.69,84.81-37.31,5.08-2.27,8.64-1.79,12.68,1.92,6.15,5.64,12.78,10.75,19.6,16.41,4.11-2.24,8.3-4.34,12.29-6.76,3.32-2.01,6.51-2.39,10.35-1.49,58.17,13.71,116.37,27.28,174.56,40.9,8.69,2.03,8.78,2.08,8.75,10.68-.18,45.45-.42,90.89-.65,136.34,0,1.26-.19,2.51-.31,3.98-1.92,1.04-3.77,2.18-5.74,3.08-11.56,5.3-23.19,10.45-34.7,15.87-3.52,1.66-6.8,1.8-10.52.88-15.87-3.93-31.79-7.66-47.69-11.44-1.91-.46-3.85-.82-6.58-1.41.18,3.26.32,5.89.49,9.04,1.67.64,3.3,1.3,4.96,1.89,19.51,6.95,39,13.94,58.55,20.79,3.27,1.14,5.75,2.59,6.95,6.11.92,2.7,2.58,5.15,3.85,7.58-3.7,3.85-54.53,29.98-71.4,36.89-22.82-9.06-45.4-18.06-68.01-26.99-22.59-8.92-45.2-17.77-67.71-26.62,1.29-4.97,4.75-9.77,8.26-11.48,17.46-8.54,34.97-17,52.42-25.57,2.47-1.22,4.66-1.58,7.18-.2,1.53.84,3.34,1.17,5.76,1.97.13-2.57.24-4.63.36-6.9-1.2-.5-2.13-1.03-3.13-1.27-9-2.19-18-4.41-27.04-6.41-1.64-.36-3.6-.15-5.22.38-21.41,7-42.8,14.07-64.15,21.24-3.04,1.02-5.87,1.22-8.99.39-16.15-4.28-32.35-8.4-48.51-12.63-4.76-1.25-4.78-1.33-4.82-6.26-.22-30.36-.4-60.72-.64-91.07-.13-16.72-.35-33.45-.51-50.17-.03-3.26,0-6.52,0-10.09Zm98.21-4.36c2.48.81,3.62,1.26,4.81,1.55,17.11,4.18,34.22,8.34,51.34,12.48,40.41,9.79,80.82,19.55,121.23,29.37,2.77.67,5.19.73,7.79-.84,11.49-6.97,23.09-13.77,34.63-20.66.81-.49,1.45-1.27,2.87-2.55-3.86-.91-6.81-1.6-9.76-2.29-56.05-13.08-112.1-26.13-168.13-39.3-2.91-.68-5.17-.29-7.69,1.17-8.8,5.1-17.72,10-26.58,14.99-3.14,1.77-6.24,3.6-10.51,6.07Zm183.62,184.23c14.4-6.47,28.05-12.59,41.47-18.62,1.22-9.58,1.48-139.09.29-142.87-.66.25-1.37.41-1.96.76-12.33,7.32-24.6,14.75-37,21.94-2.72,1.58-3.04,3.66-3.04,6.33-.04,41.76-.13,83.52-.17,125.28,0,2.11.24,4.22.42,7.18Zm-278.7-143.08c.33,39.84.65,78.41.98,117.18,17.72,4.69,34.79,9.22,52.64,13.94-.39-36.79-.77-72.67-1.15-108.65-17.46-7.48-34.41-14.74-52.47-22.47Zm159.94,154.06c0-2.34,0-4.32,0-6.3-.03-5.08.03-10.17-.15-15.25-.05-1.32-.47-3.46-1.3-3.79-4.1-1.63-8.01-3.74-12.88-1.22-14.5,7.51-29.24,14.58-43.87,21.85-1.38.69-2.68,1.55-4.84,2.81,2.38,1.07,3.93,1.86,5.54,2.47,37.8,14.47,75.61,28.9,113.39,43.41,2.35.9,4.31,1.04,6.68-.11,18.94-9.2,37.95-18.26,56.92-27.4,1.04-.5,1.93-1.32,3.72-2.57-21.79-7.76-42.69-15.21-64.06-22.82-.11,2.23-.42,3.69-.21,5.07.52,3.5-.93,5.8-3.68,7.82-3.51,2.58-6.89,5.36-10.1,8.3-1.88,1.72-3.55,1.93-5.89,1.11-12.84-4.46-25.73-8.78-39.27-13.38Zm114.13-11.53c1.4-4.83,1.48-131.75.11-136.61-60.45-14.64-121.07-29.33-182.66-44.25.01,46.29.06,91.61.49,137.27,60.88,14.57,121.24,29.02,182.07,43.58Zm-218.27-118.62c-.11,1.47-.3,2.72-.29,3.97.33,32.35.68,64.69,1.07,97.04.02,1.72.42,3.43.71,5.65,21.06-6.94,41.44-13.66,61.82-20.37-.04-.39-.07-.78-.11-1.17-1.64-.51-3.27-1.1-4.94-1.51-6.35-1.56-12.71-3.06-19.07-4.57q-6.46-1.54-6.5-8.36c0-.73,0-1.45,0-2.18-.04-24.72-.08-49.43-.14-74.15,0-1.91-.18-3.81-.32-6.49-11.24,4.23-21.7,8.17-32.24,12.14Zm32.49-50.28c0-3.72.17-7.17-.05-10.59-.19-2.94.92-4.65,3.52-6.01,6.27-3.29,12.41-6.84,18.57-10.32,1.53-.86,2.97-1.86,4.39-2.75-.33-.77-.37-1.19-.61-1.39-6.69-5.59-13.44-11.11-20.07-16.77-1.97-1.68-3.61-.88-5.48-.06-27.58,12.17-55.16,24.31-82.74,36.48-1.04.46-1.97,1.18-3.55,2.14.99.64,1.42.96,1.89,1.22,15.45,8.46,30.92,16.89,46.34,25.41,2.02,1.12,3.65.93,5.58-.12,10.54-5.71,21.12-11.32,32.2-17.25Zm-88.46-6.98c0,8.73.18,16.7-.08,24.65-.12,3.81,1.11,5.84,4.73,7.34,14.58,6.04,29.03,12.41,43.54,18.64,1.12.48,2.34.76,4.26,1.36,0-6.42-.23-12.35.08-18.26.2-3.81-1.22-5.85-4.53-7.63-14.71-7.9-29.27-16.07-43.9-24.13-1.08-.6-2.23-1.08-4.1-1.97Zm201.37,198.18v-36.44c-12.82-3.05-25.4-6.03-38.14-9.06v32.44c12.79,4.38,25.22,8.63,38.14,13.06Zm17.81,37c-41.79-15.85-83.33-31.61-125.1-47.46-1.39,1.75-2.59,3.27-4.36,5.52,43.56,17.1,86.2,34.8,130.31,51.41-.33-3.74-.58-6.54-.85-9.47Zm-130.94-224.34c-2.1.99-3.7,1.67-5.23,2.49-6.86,3.69-13.72,7.37-20.54,11.14-8.61,4.76-7.04,2.39-7.01,11.87.02,5.56.17,11.11.28,17.65,11.39-4.3,21.95-8.29,32.5-12.27v-30.9Zm133.69,224.13c.55,3.32,1.01,6.08,1.58,9.45,22.47-11.12,44.23-21.89,66.35-32.84-1.35-2.67-2.46-4.88-3.78-7.5-21.45,10.33-42.51,20.47-64.15,30.89Zm-16.98-40.95c.38.25.76.51,1.14.76,3-2.51,6.05-4.97,8.97-7.58.59-.52.98-1.6.96-2.41-.12-6.49-.35-12.98-.56-19.72-3.78-.8-7.01-1.48-10.51-2.22v31.16Z"/>
    <path class="cls-3" d="m152.72,480.05c.29,3.74.55,7.12.79,10.26.77.36,1.15.71,1.4.63,5.34-1.6,10.31,0,15.36,1.56,15.11,4.64,30.26,9.12,45.39,13.68,1.54.47,3.03,1.11,4.31,1.58.28.65.53.97.54,1.3.38,8.67.41,8.73-7.2,12.94-27.83,15.4-55.71,30.7-83.48,46.19-3.14,1.75-5.41,1.69-8.41-.27-16.74-10.93-33.56-21.73-50.47-32.4-2.64-1.67-3.13-3.5-2.8-6.31.52-4.45,1.86-7.67,6.77-9.24,7.25-2.32,14.19-5.6,21.36-8.22,2.62-.96,3.72-2.32,3.79-5.1.12-4.48.61-8.95.99-14.12-5.9,1.42-10.99,2.61-16.06,3.87-14.63,3.61-29.25,7.28-43.9,10.82-1.24.3-2.88.13-3.99-.46-8.82-4.7-17.52-9.63-26.35-14.31-2.88-1.53-4.23-3.46-4.21-6.81.04-7.81-.3-15.63-.38-23.45-.4-37.08-.79-74.16-1.11-111.25-.08-8.79-.79-7.76,7.84-9.99,37.46-9.68,74.92-19.36,112.37-29.04,1.74-.45,3.46-.98,5.58-1.59.1-2.08.37-4.05.26-5.99-.2-3.78,1.24-6.07,4.97-7.37,10.8-3.78,21.49-7.86,32.27-11.68,1.2-.43,2.82-.1,4.13.26,7.17,2,14.28,4.23,21.47,6.15,2.36.63,4.92.49,7.37.86,1.18.18,2.63.38,3.42,1.14,3.16,3.06,7.24,4.09,11.16,5.39,27.42,9.07,54.87,18.06,82.31,27.08.69.23,1.37.49,2.05.73,5.07,1.76,5.4,2.07,5.38,7.36-.03,12-.12,24-.27,35.99-.27,20.54-.6,41.08-.94,61.62-.12,7.09-.42,14.17-.46,21.26-.02,2.93-.84,5.16-3.18,7.09-14.86,12.26-29.66,24.61-44.42,36.99-1.88,1.58-3.56,1.7-5.94,1.07-25.47-6.7-51.06-12.97-76.45-19.98-7.38-2.04-13.87-.96-21.26,1.74ZM12.49,343.88c-.04.42-.09.83-.13,1.25,7.98,5,16.02,9.9,23.9,15.04,2.52,1.64,4.76,1.8,7.64,1.09,58.48-14.49,116.99-28.87,175.49-43.3,1.69-.42,3.33-1.03,5.39-1.68-.69-.99-.99-1.63-1.48-2.07-6.34-5.72-12.78-11.33-19.02-17.14-2.1-1.95-4.03-1.62-6.45-1-59.93,15.42-119.87,30.76-179.81,46.14-1.87.48-3.69,1.11-5.54,1.67Zm213.37-23.23c-5.52-.07-179.91,43-183.68,45.22-1.25,13.98-.62,133.66.88,137.97,60.9-15.09,121.85-30.18,182.8-45.28v-137.91Zm-217.78,25.4c0,3.07-.02,4.83,0,6.59.18,13.09.42,26.17.54,39.26.27,30.54.53,61.08.63,91.63.01,3.57,1.04,5.57,4.32,7.17,7.02,3.42,13.8,7.33,20.7,11,1.21.64,2.55,1.06,4.51,1.86,0-2.82,0-4.96,0-7.11,0-39.63,0-79.27-.02-118.9,0-3.99,1.14-8.73-.6-11.77-1.86-3.24-6.46-4.97-9.97-7.2-6.26-3.99-12.6-7.85-20.11-12.52Zm293.82,31.15c-1.13.26-1.69.27-2.13.5-13.76,7.36-27.49,14.8-41.29,22.09-2.52,1.33-3.03,3.16-3.06,5.72-.37,28.14-.82,56.28-1.22,84.42-.02,1.17.24,2.34.45,4.31,2.16-1.63,3.74-2.74,5.23-3.97,12.2-10.03,24.3-20.19,36.65-30.05,3.29-2.63,4.72-5.36,4.75-9.59.16-23.24.6-46.48.92-69.72.01-1.06-.16-2.13-.29-3.72Zm-147.99,117.65c.28,3.57.41,7.34.92,11.06.36,2.68-.36,4.4-2.7,5.87-8.61,5.42-17.15,10.96-25.62,16.59-2.12,1.41-3.85,1.33-6.02.17-4.64-2.48-9.4-4.76-14.16-7.02-3.45-1.64-6.84-3.26-7.53-7.92-8.63,3.52-16.73,6.82-25.88,10.56,18.8,11.56,36.52,22.46,54.12,33.28,29.59-15.98,58.71-31.72,89.05-48.11-3.23-1.09-5.07-1.75-6.93-2.33-14.41-4.43-28.86-8.7-43.2-13.33-4.14-1.34-7.75-1.04-12.05,1.18Zm21.05-20.58c-.01.38-.02.76-.04,1.15,25.17,6.56,50.33,13.12,76.05,19.83.13-2.75.27-4.72.3-6.68.18-12.17.32-24.35.52-36.52.25-15.62.46-31.25.84-46.87.08-3.12-.7-5.03-3.84-6.22-5.26-1.99-10.34-4.46-15.52-6.65-1.07-.45-2.27-.57-3.93-.96v69.1c-18.28,4.64-36.33,9.23-54.39,13.81Zm40.9-172.42c-.14.27-.28.54-.41.81.56.68,1.05,1.43,1.68,2.02,3.07,2.84,6.15,5.66,9.27,8.44,2.12,1.89,3.18,3.82,2.98,7.05-.48,7.6-.01,15.26-.24,22.88-.09,3.1,1.25,4.54,3.84,5.75,5.93,2.76,11.81,5.62,17.57,8.7,2.74,1.46,4.84,1.39,7.49-.34,12.78-8.34,25.71-16.45,38.56-24.68.99-.63,1.8-1.55,3.31-2.88-28.5-9.41-56.28-18.58-84.05-27.75Zm86.69,30.99c-1.25.4-1.81.46-2.23.73-13.89,8.89-27.74,17.85-41.67,26.68-2.13,1.35-2.8,2.99-2.8,5.38.02,9.43-.12,18.85-.14,28.28,0,.95.42,1.91.66,2.94.92-.24,1.48-.28,1.94-.52,13.77-7.3,27.5-14.68,41.31-21.9,2.38-1.24,2.79-2.97,2.81-5.3.08-10.51.25-21.03.37-31.54.02-1.42-.13-2.85-.23-4.76Zm-178.81,192.59c1.14-.24,1.73-.22,2.15-.48,7.87-4.88,15.69-9.83,23.58-14.67,1.87-1.15,2.12-2.6,1.95-4.59-.63-7.23-1.09-14.48-1.67-21.71-.08-1-.48-1.97-.84-3.4-10.3,2.58-20.21,5.06-30.38,7.6,1.8,12.86,3.49,24.97,5.21,37.25Zm105.8-175.11v37.23c7.61,3.09,14.82,6.6,22.93,9.43.34-12.24.66-23.6.97-35.12-7.96-3.84-15.56-7.51-23.91-11.54Zm-92.73-50.2c3.56,1.37,6.11,2.11,8.43,3.3,3.43,1.76,6.71,1.82,10.42.78,10.81-3.02,21.7-5.7,32.56-8.55,1.11-.29,2.16-.82,3.24-1.24-6.23-2.64-12.47-4.24-18.62-6.13-2.59-.8-4.85-.64-7.34.36-7.73,3.08-15.55,5.95-23.32,8.94-1.45.56-2.81,1.32-5.36,2.53Zm-16.47,225.13c-1.72-12.71-3.27-24.13-4.92-36.32-4.11,1.06-7.66,1.97-11.16,2.87-.54,8.62-1.04,16.56-1.55,24.7,5.72,2.84,11.15,5.53,17.64,8.75Zm8.2,40.01c1.92-.99,3.81-1.93,5.65-2.94,25.13-13.85,50.25-27.71,75.38-41.56,2.23-1.23,4.48-2.41,6.72-3.61,2.38-1.28,2.22-2.86.65-5.01-3.86,2.1-7.51,4.09-11.16,6.08-24.73,13.43-49.46,26.89-74.22,40.27-2.62,1.41-4.8,2.72-3.01,6.78Zm-4.62.49c1.31-5.65,1.34-5.7-2.25-7.94-15.66-9.8-31.34-19.57-47.03-29.32-.86-.53-1.9-.78-2.91-1.18-1.02,5.35-1,5.33,3.04,7.52,2.07,1.12,4.13,2.27,6.11,3.53,12.53,7.98,25.03,16,37.54,24,1.64,1.05,3.3,2.04,5.5,3.4Zm10.35-263.68c.14,3.02.23,5.01.33,7.24,3.64-.74,6.54-1.1,10.14-3.2-3.82-1.47-6.61-2.55-10.47-4.04Z"/>
    <path class="cls-3" d="m744.56,822.23h-93.48c-.52,6.53.36,12.8.22,19.78,2.15.09,4.06.24,5.96.23,11.81-.02,23.63-.09,35.44-.09,5.48,0,5.72.27,6.06,5.86.15,2.36.29,4.72.33,7.08.09,5.33-.62,6.06-5.76,6.21-.73.02-1.45.01-2.18.01-43.25-.02-86.51-.04-129.76-.06-.91,0-1.82.05-2.72-.04-3.34-.34-3.93-1.17-3.67-4.51.36-4.51.62-9.03.96-14.2,15.03-.93,29.99.06,45.32-.26v-19.94c-15.4-.56-30.94-.19-46.48-.27-15.41-.08-30.82-.02-45.79-.02-.56-.56-.71-.67-.81-.82-.1-.14-.19-.31-.23-.48-.11-.53-.26-1.06-.28-1.6-.05-1.45-.06-2.91-.05-4.36.23-54.69.47-109.38.71-164.74,2.19-.16,4.28-.43,6.37-.44,46.89-.19,93.77-.39,140.66-.51,27.62-.07,55.25-.03,82.87-.04,1.95,0,3.91,0,5.68,0,1.39,4.57,1.91,164.92.62,173.21Zm-233.85-3.33h230.58c.29-.84.62-1.35.62-1.85,0-53.42,0-106.85-.04-160.27,0-1.25-.24-2.51-.39-3.76-.02-.16-.18-.32-.3-.45-.12-.13-.27-.22-.41-.32-10.23-1.08-225.03-.2-229.11,1.1-.31,54.85-.63,109.85-.95,165.55Zm48.22,38.26c3.77,1.08,129.66,1.74,136.62.72v-12.75c-2.28,0-4.23,0-6.18,0-10.91.03-21.81.1-32.72.09-8.91-.01-8.51.62-8.79-8.64-.14-4.65-.22-9.31-.32-13.83-7.37-1.2-39.01-.92-42.87.31,0,5.4.04,10.84-.01,16.28-.05,5.52-.34,5.87-5.9,5.86-11.27,0-22.54-.14-33.81-.17-1.92,0-3.84.19-6.02.3v11.82Z"/>
    <path class="cls-3" d="m845.31,859.76h-80.64c-.21-2.27-.49-3.83-.48-5.39.23-52.69.49-105.37.74-158.06,0-1.09.08-2.18.11-3.27.05-2,1.23-2.92,3.07-3.13.9-.1,1.81-.08,2.72-.07,22.71.21,45.42.43,68.13.65,1.09.01,2.18,0,3.27.09,2.09.19,3.36,1.23,3.34,3.48,0,.91.03,1.82.03,2.72,0,53.41-.01,106.83-.03,160.24,0,.72-.13,1.43-.25,2.73Zm-3.04-2.64v-121.03c-24.9.16-49.5.1-73.92.33-1.26,6.01-1.33,116.31-.16,120.7h74.08Zm-74.4-124.46c6.91,1.09,70.88.53,74.81-.67-.01-12.67.41-25.46-.11-38.69-25.17.1-49.76-1.19-74.7-.62v39.98Z"/>
    <path class="cls-3" d="m647.27,101.68c5.25.08,9.5,4.31,9.4,9.35-.1,4.82-4.09,8.65-8.84,8.47-4.79-.18-8.8-4.48-8.78-9.41.02-4.69,3.73-8.48,8.22-8.41Zm.68,14.84c2.89.08,5.47-2.34,5.7-5.35.25-3.22-2.55-6.66-5.57-6.85-2.93-.19-5.88,2.61-6.03,5.71-.15,3.27,2.69,6.4,5.9,6.5Z"/>
    <path class="cls-3" d="m612.07,87.08c4.04,1.57,7.77,2.95,11.44,4.47,4.25,1.76,4.22,1.81,3.83,7.45-1.15,0-2.42.28-3.49-.05-3.28-1.03-6.56-2.15-9.72-3.51-3.85-1.67-4.21-3.19-2.06-8.36Zm2.33,4.15c-.15.48-.3.97-.44,1.45,3.47,1.32,6.94,2.64,10.42,3.97.14-.37.28-.74.43-1.11-3.17-2.15-6.66-3.53-10.4-4.3Z"/>
    <path class="cls-3" d="m624.87,110.85c-3.86-1.44-7.78-2.73-11.55-4.36-2.66-1.15-2.9-2.68-1.7-8.04,4.6.93,8.95,2.52,12.71,5.27,2.24,1.64,2.78,4.12.54,7.12Zm-10.99-8.04c3.18,3.34,6.12,4.39,9.96,3.74-3.28-2.37-6.49-3.38-9.96-3.74Z"/>
    <path class="cls-3" d="m647.54,133.68c-2.87-.15-4.96-2.65-4.69-5.58.24-2.62,2.26-4.37,4.77-4.15,2.79.25,5.12,2.95,4.83,5.6-.27,2.45-2.43,4.26-4.91,4.13Zm2.47-5.23c-1.18-.6-1.87-1.19-2.58-1.22-.41-.01-1.31,1.08-1.19,1.35.29.72,1.02,1.26,1.57,1.87.59-.54,1.18-1.08,2.21-2.01Z"/>
    <path class="cls-3" d="m876.17,88.57c.09,1.86.19,3.11.2,4.37.29,37.27.57,74.53.83,111.8.06,8.25-.1,8.41-7.77,6.11-27.87-8.36-56.5-13.57-84.77-20.26-24.39-5.78-48.88-11.14-73.33-16.71-5.07-1.16-5.12-1.2-5.12-6.52-.05-37.81-.07-75.63-.1-113.44,0-1.09.01-2.18.11-3.27.19-2.06,1.45-2.82,3.39-2.53,1.07.16,2.13.48,3.18.73,52.8,12.74,105.6,25.47,158.39,38.22,1.57.38,3.1.93,4.98,1.49Zm-3.05,2.34c-9.91-3.49-159.62-39-163.65-38.83v118.12c13.73,3.16,27.31,6.3,40.9,9.4,13.63,3.11,27.28,6.15,40.91,9.25,13.81,3.14,27.59,6.41,41.42,9.45,13.53,2.98,26.95,6.52,41.38,9.13-.32-39.35-.63-77.81-.95-116.53Z"/>
    <path class="cls-3" d="m220.17,392.95c.5,19.07,1.04,38.13,1.47,57.2.11,4.8-.45,5.36-4.83,6.38-53.03,12.39-106.07,24.77-159.1,37.15-1.24.29-2.46.65-3.71.86-4.3.73-5.12-.04-4.89-4.36.11-1.99.12-3.99.13-5.99.16-33.61.32-67.22.48-100.83,0-1.64,0-3.27.03-4.91.13-5.42.59-6.07,5.92-7.46,15.11-3.94,30.23-7.83,45.35-11.72,36.39-9.36,72.79-18.72,109.18-28.08.53-.14,1.04-.34,1.57-.46,5.55-1.28,6.43-.68,6.6,5.01.54,17.61,1.02,35.23,1.53,52.84.04,1.45.14,2.9.2,4.35.02,0,.05,0,.07,0Zm-167.34,99.01c55.46-12.93,110.41-25.74,165.94-38.68-1.14-40-2.27-79.83-3.43-120.36-54.66,14.06-108.54,27.91-162.51,41.79v117.26Z"/>
    <path class="cls-3" d="m268.64,398.49c1.47,6.39.97,11.76.8,17.09-.05,1.66-6.24,6.02-8.04,5.69-.89-.16-2.2-1.5-2.23-2.34-.18-4.5-.13-9.03.12-13.53.06-1.05.97-2.39,1.88-2.99,2.06-1.35,4.36-2.33,7.47-3.92Zm-2.01,5.35c-3.39.34-4.88,1.19-4.85,3.73.03,3.02,0,6.03,0,9.14,3.63-.07,4.99-1.41,4.87-4.36-.11-2.66-.02-5.33-.02-8.51Z"/>
    <path class="cls-3" d="m279.78,399.77c-.07,2.84-1.81,4.78-4.19,4.68-2.22-.09-3.67-1.95-3.58-4.56.09-2.56,2.09-4.46,4.56-4.33,2.09.11,3.27,1.67,3.21,4.21Z"/>
    <path class="cls-3" d="m286.31,390.23c2.38,0,4.01,1.68,3.94,4.05-.07,2.19-1.99,4.29-3.96,4.32-1.99.04-3.89-2.05-3.91-4.3-.02-2.43,1.56-4.07,3.94-4.07Zm.03,2.04c-.51.92-.97,1.44-1.06,2.02-.04.29.59.68.92,1.03.38-.49.89-.93,1.08-1.49.09-.27-.43-.75-.94-1.56Z"/>
    <path class="cls-3" d="m737.58,656.49v158.04c-2.78.16-5.43.44-8.08.44-63.07-.02-126.15-.08-189.22-.12-6.18,0-12.36.02-18.54-.05-5.85-.06-6.15-.39-6.15-6.2,0-36.17,0-72.35,0-108.52,0-11.45.02-22.9.05-34.35,0-1.63.07-3.27.13-4.9.1-2.6,1.28-4.08,4.06-3.93.91.05,1.82,0,2.73,0,68.71-.13,137.42-.26,206.13-.39,2.68,0,5.35,0,8.89,0Zm-218.54,155.27h215.33v-151.89h-215.33v151.89Z"/>
    <path class="cls-3" d="m834.11,752.47c-3.16-.03-5.71-2.77-5.59-6.03.1-2.75,2.54-4.93,5.42-4.84,2.93.09,5.28,2.67,5.25,5.75-.03,3.02-2.14,5.14-5.08,5.12Zm-.19-2.16c1.06-1.59,2.18-2.73,1.98-3.06-.63-1.02-1.76-1.74-2.7-2.57-.53.61-1.62,1.38-1.49,1.8.33,1.13,1.17,2.12,2.21,3.83Z"/>
    <path class="cls-3" d="m833.95,765.39c-2.87-.01-5.49-2.78-5.42-5.71.06-2.32,1.81-3.99,4.25-4.03,2.94-.06,5.46,2.63,5.33,5.68-.1,2.49-1.72,4.07-4.16,4.06Zm-1.98-6.76c-.89,2.11-.19,3.2,1.46,3.61.39.1,1.4-.66,1.43-1.08.15-1.79-.92-2.57-2.9-2.53Z"/>
  </g>
</svg>