<?xml version="1.0" encoding="UTF-8"?>
<svg id="Layer_6_Image" data-name="Layer 6 Image" xmlns="http://www.w3.org/2000/svg" viewBox="0 0 414.13 582.19">
  <defs>
    <style>
      .cls-1 {
        fill: [[settings.colors.primary]];
      }
      .cls-2 {
        fill: [[settings.colors.secondary]];
      }
      .cls-3 {
        fill: [[settings.colors.primary]];
      }
      .cls-4 {
        stroke: #000;
        stroke-miterlimit: 10;
        stroke-width: 7px;
      }
      .cls-5 {
        fill: [[settings.colors.primary]];
      }

    </style>
  </defs>
  <path class="cls-1" d="m215.34,333.36c18.56-.15,36.76-3.42,54.74-7.12,16.6-3.41,33-8.19,47.57-17.51,1.05-.67,2.3-1,3.45-1.5,13.74-5.96,25.92-14.21,36.15-25.17,5.69-6.1,10.89-12.66,16.7-18.63,6.84-7.04,12.51-14.91,18.14-22.9,5.9-8.38,6.88-18.43,10.29-27.62,1.72-4.64,1.96-9.83,2.99-14.75,2.08-9.93,2.75-19.93,1.52-30.02-.49-4.05-1.31-8.08-1.78-12.13-1.23-10.53-3.55-20.76-7.89-30.49-.5-1.13-1.04-2.38-1.01-3.56.11-5.97-1.83-11.39-5.69-15.59-8.35-9.07-14.07-20.03-21.9-29.44-6.23-7.5-12.11-15.33-20.59-20.6-2.8-1.74-5.61-3.58-8.04-5.78-8.43-7.7-17.94-13.77-27.91-19.26-12.45-6.86-25.34-12.75-39.09-16.25-11.98-3.06-23.99-6.46-36.48-7-4.39-.18-8.88-.75-13.14-.02-3.96.68-7.82,1.13-11.67.39-15.29-2.9-30.56-1.19-45.56,1.2-15.97,2.54-31.65,6.86-47.43,10.46-3.54.81-6.94,1.95-9.49,4.88-.76.87-2.13,1.26-3.26,1.75-2.02.87-4.11,1.58-6.1,2.51-19.96,9.4-36.73,22.95-51.24,39.43-3.01,3.43-6.01,6.88-9.01,10.3-6.21,7.09-12.63,13.99-16.37,22.88-3.96,9.41-8.22,18.7-12.19,28.11-1.03,2.44-1.67,5.09-2.17,7.71-1.36,7.1-2.65,14.23-3.72,21.38-.29,1.93.1,4.02.47,5.97.38,1.97,1.47,3.83,1.66,5.78.69,7.33,1.11,14.69,1.7,22.03.94,11.55,5.7,21.87,10.84,31.94,3.78,7.41,8.27,14.48,12.7,21.53,2.33,3.71,4.84,7.46,7.91,10.56,14.51,14.6,28.51,29.71,45.83,41.31,10.96,7.34,22.34,13.39,34.77,17.7,6.78,2.35,13.63,4.49,19.74,8.68,3.08,2.1,7.28,2.79,11.1,3.54,3.52.7,7.2.63,10.82.91,8.94.68,17.88,1.32,26.82,2.07,8.62.72,17.23,1.53,25.85,2.3h0Z"/>
  <path class="cls-2" d="m215.34,333.36c-8.62-.77-17.23-1.59-25.85-2.3-8.94-.74-17.88-1.39-26.82-2.07-3.61-.28-7.28-.21-10.82-.91-3.81-.75-8.02-1.44-11.1-3.54-6.11-4.18-12.96-6.32-19.74-8.68-12.43-4.31-23.81-10.36-34.77-17.7-17.33-11.6-31.32-26.71-45.83-41.31-3.07-3.09-5.58-6.83-7.91-10.56-4.43-7.06-8.92-14.12-12.7-21.53-5.14-10.08-9.91-20.4-10.84-31.94-.6-7.34-1-14.69-1.7-22.03-.19-1.97-1.28-3.82-1.66-5.78-.37-1.96-.76-4.04-.47-5.97,1.08-7.15,2.37-14.27,3.72-21.38.5-2.62,1.14-5.26,2.17-7.71,3.97-9.4,8.23-18.69,12.19-28.11,3.74-8.89,10.17-15.79,16.37-22.88,3-3.44,6-6.88,9.01-10.3,14.51-16.49,31.28-30.04,51.24-39.43,1.99-.94,4.09-1.64,6.1-2.51,1.13-.49,2.5-.87,3.26-1.75,2.55-2.93,5.94-4.07,9.49-4.88,15.79-3.6,31.48-7.92,47.43-10.46,15.01-2.39,30.28-4.1,45.56-1.2,3.85.73,7.72.29,11.67-.39,4.26-.73,8.75-.16,13.14.02,12.49.53,24.5,3.94,36.48,7,13.74,3.51,26.64,9.4,39.09,16.25,9.97,5.49,19.47,11.55,27.91,19.26,2.42,2.21,5.24,4.04,8.04,5.78,8.48,5.27,14.37,13.1,20.59,20.6,7.83,9.41,13.54,20.37,21.9,29.44,3.86,4.2,5.8,9.63,5.69,15.59-.03,1.19.52,2.43,1.01,3.56,4.34,9.72,6.66,19.96,7.89,30.49.48,4.06,1.28,8.08,1.78,12.13,1.23,10.09.56,20.09-1.52,30.02-1.03,4.92-1.26,10.1-2.99,14.75-3.41,9.2-4.4,19.24-10.29,27.62-5.62,8-11.3,15.86-18.14,22.9-5.81,5.97-11.01,12.54-16.7,18.63-10.23,10.96-22.4,19.21-36.15,25.17-1.15.5-2.42.83-3.45,1.5-14.57,9.33-30.98,14.1-47.57,17.51-17.98,3.7-36.18,6.97-54.74,7.12h0Zm125.38-209.9c1.85-.32,4.71-.54,7.39-1.35,4.29-1.31,6.89-7.04,5.12-11.05-3.55-8.01-6.49-16.38-13.98-21.96-3.13-2.33-5.8-5.25-8.79-7.77-5.17-4.36-10.42-8.62-15.64-12.92-.61-.49-1.19-1.02-1.84-1.45-11.63-7.64-24.15-13.46-37.26-17.99-5.93-2.05-12.09-3.45-18.11-5.26-4.81-1.45-9.11-.64-13.49,1.8-5.84,3.26-7.1,6.65-4.23,12.57,1.07,2.19,2.15,4.68,2.1,7.01-.03,2.13.32,3.65,1.74,5.02,1.81,1.75,3.62,3.48,5.51,5.14,4.72,4.15,9.46,8.26,14.24,12.33.81.69,1.84,1.15,2.77,1.71,4.47,2.63,9.12,4.99,13.36,7.93,9.07,6.29,18.21,12.3,28.44,16.67,4.16,1.78,8.56,3.01,12.53,5.03,6.11,3.13,12.55,3.89,20.11,4.52h.03Z"/>
  <path class="cls-3" d="m237.74,56.84c.31-8.32,5.34-13.86,13.38-13.56,4.24.16,8.6.92,12.65,2.2,16.37,5.15,31.72,12.5,45.76,22.53,2.98,2.12,6.23,3.88,9.47,5.59,12.03,6.36,21.25,15.75,28.69,27.01,2.75,4.17,4.75,8.72,4.51,13.96-.28,5.96-3.76,9.11-9.66,8.62-.48-.04-.97-.06-1.42-.2-7.58-2.31-15.14-4.68-22.73-6.94-2.4-.72-4.9-1.1-7.32-1.77-1.97-.54-4.04-1-5.83-1.95-14.84-7.89-28.94-16.95-41.78-27.86-2-1.71-3.84-3.03-6.75-2.87-1.43.08-3.31-1.19-4.36-2.41-4.1-4.68-8.19-9.41-11.79-14.48-1.55-2.17-1.91-5.21-2.82-7.85v-.02Z"/>
  <path class="cls-4" d="m251.12,333.69c-.89,5.43-1.76,10.69-2.61,15.94-6.51,40.23-13.01,80.47-19.53,120.7-5.51,34.02-11.01,68.03-16.53,102.05-.23,1.39-.49,2.79-.77,4.18-.35,1.76-1.7,2.42-3.15,2.02-1-.27-2.32-1.28-2.51-2.18-1.1-5.07-1.94-10.2-2.81-15.32-9.4-55.06-18.82-110.13-28.17-165.2-3.39-20.01-6.59-40.06-9.89-60.08-.17-1.07-.47-2.13-.76-3.49-3.34-.77-6.69-1.52-10.04-2.32-34.84-8.42-66.41-23.39-93.62-46.96-23.82-20.64-41.42-45.55-50.79-75.9-2.83-9.2-4.69-18.61-5.49-28.21-.31-3.74-1.05-7.49-.94-11.22.74-24.57,6.16-47.95,18.38-69.51,13.97-24.63,33.41-44.02,57.07-59.3,26.19-16.9,54.91-27.17,85.62-31.91,8.54-1.32,17.22-1.71,25.8-2.81,9.74-1.26,19.47-.41,29.16.04,5.88.27,11.71,1.84,17.54,2.89,8.36,1.51,16.8,2.68,25.04,4.67,39.41,9.54,74.2,27.63,102.8,56.73,21.44,21.81,36.46,47.36,42.52,77.56,1.94,9.67,3.35,19.68,3.15,29.5-.57,28.03-8.89,53.85-24.63,77.17-17.52,25.93-40.89,45.1-68.54,59.29-19.6,10.06-40.36,16.76-62,20.76-1.36.25-2.71.58-4.32.93h0ZM203.18,7.35c-34.82.58-66.51,7.09-95.86,20.45-29.48,13.42-54.66,32.32-73.48,58.99-17.36,24.59-26.88,51.81-26.35,82.17.45,25.64,7.9,49.25,21.21,71.05,16.29,26.67,38.7,47.05,65.69,62.42,38.11,21.7,79.28,31.42,123.03,30.45,26.01-.57,51.3-5.17,75.71-14.28,32.01-11.96,59.78-30.1,81.46-56.85,37-45.64,42.39-104.5,14.2-155.51-14.88-26.94-36.22-47.73-62.06-64.09-14.95-9.47-30.85-17.07-47.69-22.47-15.82-5.07-31.67-10.04-48.6-10.27-9.09-.12-18.17-1.35-27.24-2.08h0Zm-34.67,325.59c-.13,1.05-.29,1.52-.23,1.94,13.33,77.16,26.69,154.31,40.05,231.47.02.11.2.23.33.28.13.06.29.04.44.06,2.96-12.15,37.74-228.74,37.22-232.4-25.86,3.52-51.7,3.17-77.82-1.36h0Z"/>
  <path class="cls-5" d="m341.71,124.37c-10.33-.34-19.02-2.55-27.35-5.9-24.58-9.89-47.08-23.13-65.71-42.28-4.4-4.52-8.27-9.48-10.91-15.27-4.73-10.36-.48-17.39,10.94-17.99,7.67-.41,15,1.65,22.13,3.99,26.22,8.62,49.5,22.32,69.41,41.49,4.38,4.22,8.05,9.21,11.66,14.15,1.71,2.35,2.84,5.27,3.64,8.1,1.76,6.21-.94,10.93-7.15,12.7-2.54.72-5.25.81-6.65,1.01h0Zm-89.01-77.97c-2.93.46-5.94.64-8.76,1.45-3.21.94-4.62,3.15-4.13,6.49.36,2.43,1.01,5.04,2.33,7.07,2.64,4.06,5.45,8.16,8.85,11.58,21.23,21.39,46.33,36.53,75.19,45.2,4.91,1.47,10.18,2.24,15.31,2.37,10.11.25,13.41-5.02,8.53-13.78-2.72-4.88-6.21-9.54-10.16-13.49-19.33-19.31-42.22-33.11-67.81-42.47-6.19-2.26-12.56-4.15-19.35-4.42h0Z"/>
</svg>